<svg width="24" height="24" viewBox="0 0 24 24" fill="none" xmlns="http://www.w3.org/2000/svg">
<path d="M5.99525 11H9.99525M7.99525 9V13M14.9953 12H15.0053M17.9953 10H18.0053M10.4442 5H13.5463C16.1712 5 17.4836 5 18.5138 5.49743C19.4208 5.9354 20.1744 6.63709 20.6759 7.51059C21.2454 8.5027 21.339 9.81181 21.526 12.43L21.772 15.8745C21.8926 17.5634 20.555 19 18.8618 19C17.9959 19 17.1747 18.6154 16.6204 17.9502L16.2453 17.5C15.9021 17.0882 15.7305 16.8823 15.5351 16.7159C15.1256 16.3672 14.6298 16.1349 14.0996 16.0436C13.8467 16 13.5787 16 13.0427 16H10.9478C10.4118 16 10.1438 16 9.89089 16.0436C9.36075 16.1349 8.86493 16.3672 8.45536 16.7159C8.25999 16.8823 8.08841 17.0882 7.74525 17.5L7.37009 17.9502C6.81576 18.6154 5.9946 19 5.12871 19C3.43549 19 2.09787 17.5634 2.2185 15.8745L2.46454 12.43C2.65155 9.81181 2.74506 8.5027 3.31462 7.51059C3.8161 6.63709 4.5697 5.9354 5.47671 5.49743C6.50688 5 7.81932 5 10.4442 5Z" stroke="white" stroke-width="1.5" stroke-linecap="round" stroke-linejoin="round"/>
</svg>
