<svg width="24" height="24" viewBox="0 0 24 24" fill="none" xmlns="http://www.w3.org/2000/svg">
<path d="M19.7479 4.99504C21.1652 6.96528 22 9.38268 22 11.995C22 14.6074 21.1652 17.0248 19.7479 18.995M15.7453 7.99504C16.5362 9.12888 17 10.5078 17 11.995C17 13.4823 16.5362 14.8612 15.7453 15.995M9.63432 4.36073L6.46863 7.52642C6.29568 7.69937 6.2092 7.78584 6.10828 7.84768C6.01881 7.90251 5.92127 7.94292 5.81923 7.96741C5.70414 7.99504 5.58185 7.99504 5.33726 7.99504H3.6C3.03995 7.99504 2.75992 7.99504 2.54601 8.10404C2.35785 8.19991 2.20487 8.35289 2.10899 8.54105C2 8.75497 2 9.03499 2 9.59504V14.395C2 14.9551 2 15.2351 2.10899 15.449C2.20487 15.6372 2.35785 15.7902 2.54601 15.8861C2.75992 15.995 3.03995 15.995 3.6 15.995H5.33726C5.58185 15.995 5.70414 15.995 5.81923 16.0227C5.92127 16.0472 6.01881 16.0876 6.10828 16.1424C6.2092 16.2042 6.29568 16.2907 6.46863 16.4637L9.63431 19.6294C10.0627 20.0577 10.2769 20.2719 10.4608 20.2864C10.6203 20.299 10.7763 20.2344 10.8802 20.1127C11 19.9724 11 19.6695 11 19.0637V4.92642C11 4.3206 11 4.01769 10.8802 3.87743C10.7763 3.75572 10.6203 3.69113 10.4608 3.70369C10.2769 3.71817 10.0627 3.93235 9.63432 4.36073Z" stroke="white" stroke-width="1.5" stroke-linecap="round" stroke-linejoin="round"/>
</svg>
