<svg width="259" height="353" viewBox="0 0 259 353" fill="none" xmlns="http://www.w3.org/2000/svg">
<path d="M205.747 33.8223C208.106 36.1676 210.403 38.6197 212.637 41.1719L211.51 42.1592C213.677 44.6349 215.784 47.2068 217.827 49.8711L219.017 48.959C221.042 51.6 223.002 54.3307 224.898 57.1445L223.657 57.9824C225.499 60.7154 227.279 63.5288 228.992 66.4189L230.28 65.6543C231.976 68.5154 233.609 71.4497 235.174 74.4541L233.844 75.1465C235.37 78.0763 236.832 81.0742 238.227 84.1348L239.589 83.5127C240.97 86.5442 242.287 89.6367 243.534 92.7871L242.142 93.3398C243.358 96.4111 244.508 99.538 245.592 102.717L247.01 102.232C248.084 105.386 249.094 108.589 250.033 111.84H250.034L248.593 112.256C249.512 115.436 250.365 118.662 251.149 121.931L252.606 121.581C253.385 124.824 254.095 128.109 254.737 131.432L253.268 131.716C253.896 134.969 254.457 138.259 254.95 141.584L256.432 141.364C256.92 144.661 257.341 147.991 257.692 151.352L256.204 151.508C256.549 154.803 256.827 158.129 257.035 161.48L258.529 161.387C258.736 164.716 258.877 168.071 258.946 171.45L257.448 171.481C257.483 173.149 257.5 174.822 257.5 176.5C257.5 178.178 257.483 179.851 257.448 181.519L258.946 181.549C258.877 184.928 258.736 188.283 258.529 191.612L257.035 191.52C256.827 194.871 256.549 198.197 256.204 201.492L257.692 201.647C257.341 205.008 256.92 208.338 256.432 211.635L254.95 211.416C254.457 214.741 253.896 218.031 253.268 221.284L254.737 221.567C254.095 224.89 253.385 228.175 252.606 231.418L251.149 231.069C250.365 234.338 249.512 237.564 248.593 240.744L250.033 241.159C249.094 244.41 248.084 247.613 247.01 250.767L245.592 250.283C244.508 253.462 243.358 256.589 242.142 259.66L243.534 260.212C242.287 263.362 240.97 266.455 239.589 269.486L238.227 268.865C236.832 271.926 235.37 274.924 233.844 277.854L235.174 278.545C233.609 281.549 231.976 284.484 230.28 287.345L228.992 286.581C227.279 289.471 225.499 292.285 223.657 295.018L224.898 295.854C223.002 298.668 221.042 301.399 219.017 304.04L217.827 303.129C215.784 305.793 213.677 308.365 211.51 310.841L212.637 311.827C210.403 314.379 208.106 316.831 205.747 319.177L204.69 318.114C202.312 320.48 199.871 322.735 197.374 324.876L198.349 326.013C195.777 328.217 193.144 330.301 190.455 332.26L189.574 331.051C186.87 333.021 184.108 334.861 181.295 336.566L182.071 337.847C179.181 339.599 176.235 341.209 173.238 342.675L172.581 341.331C169.592 342.793 166.551 344.106 163.466 345.266L163.992 346.667C160.843 347.85 157.645 348.876 154.404 349.736L154.021 348.289C150.828 349.137 147.592 349.823 144.32 350.339L144.553 351.818C141.251 352.339 137.912 352.691 134.54 352.867L134.463 351.371C132.816 351.457 131.162 351.5 129.5 351.5C127.838 351.5 126.184 351.457 124.537 351.371L124.459 352.867C121.087 352.691 117.748 352.339 114.446 351.818L114.68 350.339C111.408 349.823 108.172 349.137 104.979 348.289L104.595 349.736C101.354 348.876 98.1565 347.85 95.0068 346.667L95.5342 345.266C92.4485 344.106 89.4084 342.793 86.4189 341.331L85.7607 342.675C82.7638 341.209 79.8177 339.599 76.9277 337.847L77.7051 336.566C74.8916 334.861 72.13 333.021 69.4258 331.051L68.5439 332.26C65.8548 330.301 63.222 328.217 60.6504 326.013L61.626 324.876C59.1288 322.735 56.6884 320.48 54.3096 318.114L53.252 319.177C50.8935 316.831 48.5963 314.379 46.3623 311.827L47.4902 310.841C45.3231 308.365 43.2158 305.793 41.1729 303.129L39.9824 304.04C37.9574 301.399 35.9967 298.668 34.1006 295.854L35.3428 295.018C33.5011 292.285 31.7212 289.471 30.0078 286.581L28.7188 287.345C27.0226 284.484 25.3898 281.549 23.8252 278.545L25.1562 277.854C23.6304 274.924 22.168 271.926 20.7734 268.865L19.4102 269.486C18.0288 266.455 16.7124 263.362 15.4648 260.212L16.8584 259.66C15.6421 256.589 14.4915 253.462 13.4082 250.283L11.9893 250.767C10.9147 247.613 9.90536 244.41 8.96582 241.159L10.4072 240.744C9.4881 237.564 8.63504 234.338 7.85059 231.069L6.39258 231.418C5.61424 228.175 4.90369 224.89 4.26172 221.567L5.73242 221.284C5.10391 218.031 4.54253 214.741 4.0498 211.416L2.56738 211.635C2.0788 208.338 1.65837 205.008 1.30664 201.647L2.7959 201.492C2.451 198.197 2.1734 194.871 1.96484 191.52L0.469727 191.612C0.262604 188.283 0.122375 184.928 0.0527344 181.549L1.55176 181.519C1.5174 179.851 1.5 178.178 1.5 176.5C1.5 174.822 1.5174 173.149 1.55176 171.481L0.0527344 171.45C0.122389 168.071 0.26259 164.716 0.469727 161.387L1.96484 161.48C2.1734 158.129 2.451 154.803 2.7959 151.508L1.30664 151.352C1.65838 147.991 2.07878 144.661 2.56738 141.364L4.0498 141.584C4.54253 138.259 5.10391 134.969 5.73242 131.716L4.26172 131.432C4.90371 128.109 5.61422 124.824 6.39258 121.581L7.85059 121.931C8.63504 118.662 9.4881 115.436 10.4072 112.256L8.96582 111.84C9.90538 108.589 10.9146 105.386 11.9893 102.232L13.4082 102.717C14.4915 99.538 15.6421 96.4111 16.8584 93.3398L15.4648 92.7871C16.7125 89.6367 18.0288 86.5442 19.4102 83.5127L20.7734 84.1348C22.168 81.0742 23.6304 78.0763 25.1562 75.1465L23.8252 74.4541C25.3899 71.4497 27.0226 68.5154 28.7188 65.6543L30.0078 66.4189C31.7212 63.5288 33.5011 60.7154 35.3428 57.9824L34.1006 57.1445C35.9967 54.3307 37.9574 51.6 39.9824 48.959L41.1729 49.8711C43.2158 47.2069 45.3231 44.6349 47.4902 42.1592L46.3623 41.1719C48.2051 39.0667 50.0907 37.0295 52.0186 35.0645L53.252 33.8223L54.3096 34.8857C56.6884 32.5202 59.1288 30.2646 61.626 28.124L60.6504 26.9863C63.222 24.782 65.8548 22.6982 68.5439 20.7393L69.4258 21.9492C72.13 19.9793 74.8916 18.139 77.7051 16.4336L76.9277 15.1523C79.8177 13.4005 82.7638 11.7897 85.7607 10.3242L86.4189 11.6689C89.4084 10.2071 92.4485 8.89365 95.5342 7.73438L95.0068 6.33203C98.1564 5.14872 101.354 4.12319 104.595 3.2627L104.979 4.71094C108.172 3.86321 111.408 3.17742 114.68 2.66113L114.446 1.18066C117.748 0.659769 121.087 0.307762 124.459 0.131836L124.537 1.62891C126.184 1.54302 127.838 1.5 129.5 1.5C131.162 1.5 132.816 1.54302 134.463 1.62891L134.54 0.131836C137.912 0.307728 141.251 0.659801 144.553 1.18066L144.32 2.66113C147.592 3.17742 150.828 3.86321 154.021 4.71094L154.404 3.2627C157.645 4.12316 160.843 5.14875 163.992 6.33203L163.466 7.73438C166.551 8.89365 169.592 10.2071 172.581 11.6689L173.238 10.3242C176.235 11.7897 179.181 13.4005 182.071 15.1523L181.295 16.4336C184.108 18.139 186.87 19.9793 189.574 21.9492L190.455 20.7393C193.144 22.6982 195.777 24.782 198.349 26.9863L197.374 28.124C199.871 30.2646 202.312 32.5202 204.69 34.8857L205.747 33.8223Z" stroke="#F6FBED" stroke-opacity="0.4" stroke-width="3" stroke-dasharray="10 10"/>
</svg>
