<svg width="2455" height="272" viewBox="0 0 2455 272" fill="none" xmlns="http://www.w3.org/2000/svg">
<mask id="mask0_1_54" style="mask-type:alpha" maskUnits="userSpaceOnUse" x="-3" y="0" width="2461" height="272">
<path d="M2368.5 2.5C2440.1 2.5 2455.67 52.5 2454.5 77.5V136H2454.22V194C2455.39 219 2439.82 269 2368.24 269H1992.83C1951.83 266.333 1859.16 257 1816.37 241C1762.88 221 1671.9 199.5 1638.41 199.5H146.246C130.416 199.667 96.3575 202.2 86.7598 211C74.7626 222 60.266 228.5 45.2695 228.5C30.2729 228.5 0.279297 218 0.279297 194V136H0V77.5C0 53.5 30 43 45 43C60 43 74.5 49.5 86.5 60.5C96.1 69.3 130.167 71.8333 146 72H1638.5C1672 72 1763 50.5 1816.5 30.5C1859.3 14.5 1952 5.16667 1993 2.5H2368.5Z" fill="#E4B26C"/>
<path d="M2454.5 77.5L2452 77.3835L2452 77.4417V77.5H2454.5ZM2454.5 136V138.5H2457V136H2454.5ZM2454.22 136V133.5H2451.72V136H2454.22ZM2454.22 194H2451.72V194.058L2451.72 194.117L2454.22 194ZM2368.24 269V271.5V271.5V269ZM1992.83 269L1992.66 271.495L1992.74 271.5H1992.83V269ZM1816.37 241L1815.49 243.342V243.342L1816.37 241ZM146.246 199.5V197H146.233L146.22 197L146.246 199.5ZM86.7598 211L88.4493 212.843V212.843L86.7598 211ZM45.2695 228.5V231H45.2695L45.2695 228.5ZM0.279297 136H2.7793V133.5H0.279297V136ZM0 136H-2.5V138.5H0V136ZM86.5 60.5L88.1893 58.6571H88.1893L86.5 60.5ZM146 72L145.974 74.4999L145.987 74.5H146V72ZM1816.5 30.5L1815.62 28.1583V28.1583L1816.5 30.5ZM1993 2.5V0H1992.92L1992.84 0.0052712L1993 2.5ZM2368.5 2.5V5C2403.66 5 2424.69 17.2406 2436.85 32.2015C2449.09 47.2658 2452.56 65.3796 2452 77.3835L2454.5 77.5L2457 77.6165C2457.6 64.6204 2453.88 45.2342 2440.73 29.0485C2427.49 12.7594 2404.94 0 2368.5 0V2.5ZM2454.5 77.5H2452V136H2454.5H2457V77.5H2454.5ZM2454.5 136V133.5H2454.22V136V138.5H2454.5V136ZM2454.22 136H2451.72V194H2454.22H2456.72V136H2454.22ZM2454.22 194L2451.72 194.117C2452.28 206.12 2448.81 224.234 2436.57 239.299C2424.42 254.259 2403.39 266.5 2368.24 266.5V269V271.5C2404.68 271.5 2427.22 258.74 2440.45 242.451C2453.6 226.266 2457.32 206.88 2456.72 193.883L2454.22 194ZM2368.24 269V266.5H1992.83V269V271.5H2368.24V269ZM1992.83 269L1992.99 266.505C1972.54 265.175 1939.19 262.181 1905.61 257.524C1871.98 252.858 1838.35 246.552 1817.24 238.658L1816.37 241L1815.49 243.342C1837.17 251.447 1871.28 257.809 1904.93 262.476C1938.64 267.152 1972.12 270.158 1992.66 271.495L1992.83 269ZM1816.37 241L1817.24 238.658C1790.37 228.61 1754.14 218.207 1720.46 210.316C1686.85 202.442 1655.47 197 1638.41 197V199.5V202C1654.83 202 1685.69 207.308 1719.32 215.184C1752.87 223.043 1788.88 233.39 1815.49 243.342L1816.37 241ZM1638.41 199.5V197H146.246V199.5V202H1638.41V199.5ZM146.246 199.5L146.22 197C138.219 197.084 125.628 197.765 113.795 199.54C107.88 200.428 102.094 201.597 97.1406 203.125C92.257 204.632 87.8902 206.572 85.0702 209.157L86.7598 211L88.4493 212.843C90.4282 211.028 93.9179 209.352 98.6144 207.903C103.241 206.476 108.759 205.352 114.537 204.485C126.09 202.752 138.443 202.082 146.272 202L146.246 199.5ZM86.7598 211L85.0702 209.157C73.4408 219.82 59.5243 226 45.2695 226L45.2695 228.5L45.2695 231C61.0077 231 76.0844 224.18 88.4493 212.843L86.7598 211ZM45.2695 228.5V226C38.2219 226 27.4194 223.497 18.4371 218.106C9.48025 212.731 2.7793 204.79 2.7793 194H0.279297H-2.2207C-2.2207 207.21 6.07517 216.519 15.8643 222.394C25.628 228.253 37.3206 231 45.2695 231V228.5ZM0.279297 194H2.7793V136H0.279297H-2.2207V194H0.279297ZM0.279297 136V133.5H0V136V138.5H0.279297V136ZM0 136H2.5V77.5H0H-2.5V136H0ZM0 77.5H2.5C2.5 66.7104 9.20223 58.7691 18.1612 53.3937C27.1455 48.0032 37.9506 45.5 45 45.5V43V40.5C37.0494 40.5 25.3545 43.2468 15.5888 49.1063C5.79777 54.9809 -2.5 64.2896 -2.5 77.5H0ZM45 43V45.5C59.2585 45.5 73.1785 51.68 84.8107 62.3429L86.5 60.5L88.1893 58.6571C75.8215 47.32 60.7415 40.5 45 40.5V43ZM86.5 60.5L84.8107 62.3429C87.6312 64.9284 91.9989 66.8685 96.8835 68.3749C101.838 69.903 107.625 71.0725 113.542 71.9598C125.377 73.735 137.971 74.4156 145.974 74.4999L146 72L146.026 69.5001C138.196 69.4177 125.839 68.7484 114.283 67.0152C108.504 66.1483 102.985 65.0241 98.3571 63.597C93.6594 62.1482 90.1688 60.4716 88.1893 58.6571L86.5 60.5ZM146 72V74.5H1638.5V72V69.5H146V72ZM1638.5 72V74.5C1655.57 74.5 1686.95 69.0576 1720.57 61.1841C1754.26 53.2935 1790.5 42.8903 1817.38 32.8417L1816.5 30.5L1815.62 28.1583C1789 38.1097 1752.99 48.4565 1719.43 56.3159C1685.8 64.1924 1654.93 69.5 1638.5 69.5V72ZM1816.5 30.5L1817.38 32.8417C1838.49 24.9476 1872.12 18.6423 1905.77 13.9763C1939.35 9.31909 1972.71 6.32469 1993.16 4.99473L1993 2.5L1992.84 0.0052712C1972.29 1.34198 1938.8 4.34758 1905.08 9.0237C1871.43 13.6911 1837.31 20.0524 1815.62 28.1583L1816.5 30.5ZM1993 2.5V5H2368.5V2.5V0H1993V2.5Z" fill="url(#paint0_linear_1_54)"/>
</mask>
<g mask="url(#mask0_1_54)">
<ellipse cx="2133" cy="143.5" rx="228" ry="266" fill="url(#paint1_radial_1_54)" fill-opacity="0.8"/>
<path d="M2133 -120C2257.19 -120 2358.5 -2.40247 2358.5 143.5C2358.5 289.402 2257.19 407 2133 407C2008.81 407 1907.5 289.402 1907.5 143.5C1907.5 -2.40247 2008.81 -120 2133 -120Z" stroke="#F6FBED" stroke-opacity="0.2" stroke-width="5"/>
</g>
<defs>
<linearGradient id="paint0_linear_1_54" x1="0" y1="135.75" x2="2454.56" y2="135.75" gradientUnits="userSpaceOnUse">
<stop stop-color="#B77434"/>
<stop offset="1" stop-color="#EADDB5"/>
</linearGradient>
<radialGradient id="paint1_radial_1_54" cx="0" cy="0" r="1" gradientUnits="userSpaceOnUse" gradientTransform="translate(2133.7 141.505) scale(228 266)">
<stop offset="0.326923" stop-color="#1F6D28" stop-opacity="0.88"/>
<stop offset="0.894231" stop-color="#98EF43" stop-opacity="0.4"/>
<stop offset="1" stop-color="#C5FF56" stop-opacity="0.3"/>
</radialGradient>
</defs>
</svg>
