<svg width="377" height="65" viewBox="0 0 377 65" fill="none" xmlns="http://www.w3.org/2000/svg">
<g clip-path="url(#clip0_214_188)">
<path d="M114.338 8.34601C117.276 10.452 116.106 15.886 115.456 18.98C113.87 26.39 110.49 33.722 107.136 40.456C109.762 41.6 113.428 39.754 115.456 38.038C116.262 37.362 118.134 34.554 118.862 34.606C119.59 34.658 119.824 35.308 119.642 35.776C119.46 36.244 119.096 36.14 118.888 36.452C118.368 37.128 117.146 38.714 116.808 39.39C116.418 40.17 115.872 41.392 117.224 41.236C118.03 41.132 120.968 38.844 121.592 38.168C122.372 37.336 122.658 36.062 123.49 35.282C123.932 35.412 124.4 35.854 124.374 36.348C124.348 36.842 123.646 37.31 123.698 37.856C124.868 37.18 127.65 34.164 129.002 35.36C130.354 36.556 128.144 39.078 127.806 40.17C127.468 41.262 128.378 40.482 128.664 40.43C131.992 39.728 134.046 35.334 136.542 33.488C138.206 34.84 137.244 34.58 136.438 35.542C134.514 37.856 135.294 38.246 135.242 40.768C135.164 44.252 130.354 44.148 130.796 40.664C129.73 41.392 128.352 42.224 127.286 41.08C126.22 39.936 127.494 38.012 127.884 36.66L120.864 42.432C120.474 42.328 120.032 41.938 119.98 41.522C119.928 41.106 120.396 40.924 120.344 40.456C118.706 41.626 115.3 44.278 114.936 40.664C113.272 41.808 111.14 42.51 109.112 42.172C108.098 42.016 107.5 41.392 106.538 41.262C106.33 41.86 106.07 42.458 105.758 42.978C103.912 46.15 99.6216 53.066 96.0076 54.106C92.3936 55.146 91.9256 52.988 91.6916 50.57C91.2236 45.812 92.8616 40.742 94.0836 36.218C92.4976 38.038 89.0656 42.978 86.6736 43.368C83.6836 43.862 84.6456 39.078 85.0096 37.466C85.8676 33.67 87.8696 29.588 88.4416 25.844C88.7016 24.206 89.0136 22.204 86.9336 21.814C83.6056 21.216 79.1336 25.844 78.6396 28.99C76.9236 28.808 77.4956 27.534 77.9376 26.39C79.2896 22.958 82.6696 19.266 86.7256 20.618C91.3276 22.126 89.2996 27.846 88.3896 31.2C87.9736 32.656 84.8536 41.626 85.4776 42.25C87.5316 42.38 89.3516 39.91 90.5736 38.428C92.5756 35.984 94.2136 33.202 96.0076 30.602L96.3196 30.498C96.9176 30.784 97.2816 31.174 97.0736 31.876C95.7736 35.646 94.3176 39.39 93.4076 43.264C92.9656 45.084 90.9116 52.884 94.0316 53.092C97.2816 53.326 102.118 46.176 103.652 43.654C104.016 43.056 105.368 40.924 105.498 40.456C105.68 39.728 104.536 38.168 104.276 37.232C102.638 31.486 105.966 21.086 108.41 15.678C109.606 13.052 111.088 10.062 113.402 8.32001H114.416L114.338 8.34601ZM114.754 9.54201C113.87 8.65801 110.724 14.196 110.438 14.768C107.656 20.176 104.016 30.94 105.186 36.894C105.342 37.726 105.68 38.48 105.94 39.26C106.07 39.364 106.304 38.922 106.382 38.792C107.994 36.244 109.918 31.33 111.062 28.418C113.324 22.594 115.612 15.834 114.78 9.54201H114.754ZM131.81 42.068C134.696 42.172 133.734 39.494 134.02 37.648L131.628 39.962C132.642 40.664 132.096 41.158 131.836 42.068H131.81Z" fill="#D5DE31"/>
<path d="M8.36158 43.888C8.95958 39.416 14.9916 37.648 18.5536 36.322C22.7136 34.736 27.0036 33.462 31.1636 31.85C33.2176 28.704 35.4796 25.22 36.9096 21.736C38.3396 18.252 39.2756 15.522 35.6616 14.274C29.5256 12.168 18.5796 17.03 14.6016 21.892C12.8336 24.076 10.4156 29.198 13.4056 31.304C14.2636 31.928 15.7976 31.824 15.5896 33.228C11.2736 32.214 9.99958 28.47 11.3776 24.492C13.8996 17.186 25.8336 11.83 33.1396 12.584C37.3516 13 39.9256 15.938 38.9896 20.202C38.2356 23.66 35.4536 27.664 33.6596 30.732C33.3996 31.382 34.6216 30.68 34.8036 30.654C35.1416 30.628 35.7136 30.784 35.8436 31.148C36.2596 32.422 33.0356 32.37 32.3596 33.02C28.7456 38.246 25.1316 43.498 20.9196 48.282C18.2936 51.298 15.4596 54.288 11.9756 56.316H10.3636C9.66158 55.926 8.95958 54.574 8.95958 53.794V50.778L8.36158 47.268C8.46558 46.202 8.23158 44.902 8.36158 43.862V43.888ZM29.6556 34.034C24.9236 35.776 19.6456 37.154 15.0696 39.208C7.94558 42.406 9.66158 45.682 10.1816 52.182C10.7016 58.682 9.97358 54.314 10.3896 55.198C11.2996 55.848 16.8896 50.362 17.7216 49.478C19.8536 47.242 21.6996 44.746 23.7276 42.432L29.6556 34.008V34.034Z" fill="#D5DE31"/>
<path d="M162.516 34.034V34.84C161.346 35.646 160.124 37.31 160.098 38.766C160.098 40.04 160.8 41.21 159.812 42.484C158.824 43.758 155.808 43.134 155.886 41.08C153.26 42.458 149.126 44.278 148.268 40.066C148.06 39.858 146.058 42.042 144.524 41.522C142.99 41.002 143.874 38.012 144.472 36.66C144.342 36.504 141.664 38.636 141.378 38.87C140.598 39.52 138.154 42.146 137.66 42.38C137.166 42.614 136.438 41.86 136.464 41.366L139.974 35.256C140.338 35.49 140.832 35.672 140.884 36.14C140.936 36.608 140.286 37.258 140.182 37.83C141.43 37.18 144.264 34.086 145.616 35.412C146.838 36.608 144.836 39.13 144.316 40.352C145.122 40.716 145.902 40.196 146.578 39.806C148.476 38.766 148.346 37.83 149.542 36.348C150.452 35.204 154.144 31.694 155.444 33.644C156.536 35.282 154.456 37.336 153.026 38.038C151.596 38.74 149.828 38.792 149.568 39.208C149.308 39.624 149.178 40.742 149.62 41.106C150.816 42.068 154.69 40.274 155.912 39.52C158.226 38.09 159.526 35.308 161.58 33.54L162.594 34.06L162.516 34.034ZM151.076 37.05C152.48 36.894 153.858 35.802 154.274 34.45C154.144 34.294 151.18 36.556 151.076 37.05ZM156.9 42.068C159.89 42.172 158.824 39.364 159.318 37.44C158.85 37.674 158.954 38.194 158.642 38.662C158.33 39.13 157.212 39.806 157.16 39.884C157.004 40.144 157.81 41.418 156.926 42.068H156.9Z" fill="#D5DE31"/>
<path d="M37.8716 37.856C38.8336 37.804 40.1336 38.09 40.9396 37.466C41.7456 36.842 42.7076 33.826 43.6176 33.644C44.5276 33.462 44.5016 34.19 44.5016 34.554C44.5016 34.918 43.4356 36.14 43.3056 36.66C43.5136 36.842 45.8276 35.334 46.8156 36.478C47.8036 37.622 47.0756 37.648 47.6736 37.856C47.8816 37.908 49.7276 37.544 49.9876 37.44C51.3396 36.842 51.4436 35.672 53.6276 35.906C55.8116 36.14 54.8236 36.4 55.4476 36.894L56.5916 35.334C57.1376 35.022 57.9436 35.724 57.8656 36.322L53.5496 44.538C56.5136 44.174 59.5036 44.044 62.4936 44.122C64.3916 44.174 66.8356 44.304 68.7076 44.538C69.5396 44.642 70.1376 45.032 70.0076 45.942C64.2876 45.422 58.4116 45.214 52.6916 45.994C52.2496 46.176 50.1696 49.79 49.5976 50.544C49.0256 51.298 47.2056 53.872 46.1916 53.976C44.1376 54.184 41.4856 51.844 41.9276 49.712C42.6036 46.514 48.8176 45.136 51.4956 44.642L53.9136 40.144C51.6256 42.302 47.2836 43.29 49.1036 38.532C48.2976 38.48 47.6736 38.844 46.8416 38.688C44.9176 38.298 45.9056 36.4 43.2276 38.168C40.5496 39.936 40.5236 41.184 39.1456 43.134C36.5976 43.004 40.2896 39.104 40.0816 38.922C39.1976 39.234 38.5476 39.104 37.6636 38.922C37.4816 40.976 34.7516 44.98 32.4636 43.03C30.5136 41.366 32.2296 36.686 34.3356 35.75L35.0636 36.322C35.1936 36.14 33.9456 33.878 35.5576 33.696C37.4296 33.488 38.2616 36.452 37.8716 37.934V37.856ZM36.6756 34.84C35.1936 34.476 36.2596 37.44 36.8836 37.05L36.6756 34.84ZM35.4536 36.66L35.0376 36.79C34.9076 37.336 34.3096 37.57 34.0496 37.96C33.3476 39 31.3456 43.602 34.1276 41.834C35.2976 41.106 36.1296 39.468 36.4416 38.194L35.4536 36.634V36.66ZM49.9096 41.054C52.0676 41.054 53.7576 39.182 54.9276 37.544C53.5496 35.49 49.1556 40.3 49.9096 41.054ZM50.5076 46.28C48.3756 46.514 42.7596 48.49 43.0976 51.168C43.4356 53.846 45.3076 52.832 46.2956 52.182C47.2836 51.532 48.3756 49.686 48.7916 49.062C49.4156 48.178 49.9356 47.19 50.5076 46.28Z" fill="#D5DE31"/>
<path d="M58.7756 38.896C56.9816 43.238 63.0396 40.69 64.8336 39.624C66.8616 38.428 67.3556 37.232 68.4736 35.256C69.9556 35.932 69.3056 36.738 68.7856 37.856C69.8516 37.206 72.2176 34.866 73.4396 35.074C75.8836 35.49 73.4396 39.338 72.7896 40.456C73.5436 41.002 76.2996 39.026 76.9756 38.532C77.6516 38.038 77.8856 37.258 78.7956 37.44C79.1596 37.804 77.2096 39.572 76.8716 39.832C75.9096 40.638 74.1676 42.094 72.8936 41.418C71.9056 40.898 71.8276 39.988 72.0096 38.974C72.1916 37.96 72.9196 37.414 72.8676 36.608L66.0036 42.406L65.0156 41.418L65.2236 40.794C63.2476 41.912 60.1796 43.732 58.1776 41.73C55.4476 39 59.2436 34.996 61.6616 33.618C62.8056 32.968 64.5476 32.448 64.7556 34.268C65.0676 37.102 61.0896 38.766 58.7496 38.818L58.7756 38.896ZM60.1536 37.258C61.4536 36.738 63.1176 36.01 63.3516 34.45C62.5196 35.048 61.4796 35.646 60.7516 36.348C60.0236 37.05 60.1016 36.842 60.1536 37.258Z" fill="#D5DE31"/>
<path d="M121.904 30.03C124.192 30.498 120.942 33.774 120.318 33.618C119.694 33.462 119.564 32.838 119.616 32.552L121.93 30.03H121.904Z" fill="#D5DE31"/>
</g>
<path d="M201.98 28V17.92H205.039C205.146 17.92 205.328 17.9223 205.585 17.927C205.846 17.9317 206.096 17.9503 206.334 17.983C207.099 18.0903 207.739 18.375 208.252 18.837C208.765 19.299 209.15 19.887 209.407 20.601C209.664 21.315 209.792 22.1013 209.792 22.96C209.792 23.8187 209.664 24.605 209.407 25.319C209.15 26.033 208.765 26.621 208.252 27.083C207.739 27.545 207.099 27.8297 206.334 27.937C206.101 27.965 205.851 27.9837 205.585 27.993C205.319 27.9977 205.137 28 205.039 28H201.98ZM203.044 27.013H205.039C205.23 27.013 205.436 27.0083 205.655 26.999C205.879 26.985 206.07 26.9617 206.229 26.929C206.817 26.8263 207.291 26.5883 207.65 26.215C208.014 25.8417 208.28 25.375 208.448 24.815C208.616 24.2503 208.7 23.632 208.7 22.96C208.7 22.2833 208.616 21.6627 208.448 21.098C208.28 20.5333 208.014 20.0667 207.65 19.698C207.286 19.3293 206.812 19.0937 206.229 18.991C206.07 18.9583 205.877 18.9373 205.648 18.928C205.424 18.914 205.221 18.907 205.039 18.907H203.044V27.013ZM214.305 28.21C213.568 28.21 212.929 28.0467 212.387 27.72C211.851 27.3933 211.433 26.9337 211.134 26.341C210.836 25.7483 210.686 25.053 210.686 24.255C210.686 23.429 210.833 22.715 211.127 22.113C211.421 21.511 211.834 21.0467 212.366 20.72C212.903 20.3933 213.535 20.23 214.263 20.23C215.01 20.23 215.647 20.4027 216.174 20.748C216.702 21.0887 217.101 21.5787 217.371 22.218C217.642 22.8573 217.766 23.6203 217.742 24.507H216.692V24.143C216.674 23.163 216.461 22.4233 216.055 21.924C215.654 21.4247 215.066 21.175 214.291 21.175C213.479 21.175 212.856 21.4387 212.422 21.966C211.993 22.4933 211.778 23.2447 211.778 24.22C211.778 25.172 211.993 25.9117 212.422 26.439C212.856 26.9617 213.47 27.223 214.263 27.223C214.805 27.223 215.276 27.0993 215.677 26.852C216.083 26.6 216.403 26.2383 216.636 25.767L217.595 26.138C217.297 26.796 216.856 27.307 216.272 27.671C215.694 28.0303 215.038 28.21 214.305 28.21ZM211.414 24.507V23.646H217.189V24.507H211.414ZM221.837 28.203C220.95 28.203 220.22 28.0117 219.646 27.629C219.076 27.2463 218.726 26.7143 218.596 26.033L219.646 25.858C219.758 26.2873 220.012 26.6303 220.409 26.887C220.81 27.139 221.305 27.265 221.893 27.265C222.467 27.265 222.919 27.146 223.251 26.908C223.582 26.6653 223.748 26.3363 223.748 25.921C223.748 25.6877 223.694 25.4987 223.587 25.354C223.484 25.2047 223.272 25.067 222.95 24.941C222.628 24.815 222.147 24.6657 221.508 24.493C220.822 24.3063 220.285 24.1197 219.898 23.933C219.51 23.7463 219.235 23.5317 219.072 23.289C218.908 23.0417 218.827 22.7407 218.827 22.386C218.827 21.9567 218.948 21.581 219.191 21.259C219.433 20.9323 219.769 20.6803 220.199 20.503C220.628 20.321 221.127 20.23 221.697 20.23C222.266 20.23 222.775 20.3233 223.223 20.51C223.675 20.692 224.039 20.9487 224.315 21.28C224.59 21.6113 224.753 21.9963 224.805 22.435L223.755 22.624C223.685 22.1807 223.463 21.8307 223.09 21.574C222.721 21.3127 222.252 21.1773 221.683 21.168C221.146 21.154 220.71 21.2567 220.374 21.476C220.038 21.6907 219.87 21.9777 219.87 22.337C219.87 22.5377 219.93 22.7103 220.052 22.855C220.173 22.995 220.392 23.128 220.71 23.254C221.032 23.38 221.489 23.5177 222.082 23.667C222.777 23.8443 223.323 24.031 223.72 24.227C224.116 24.423 224.399 24.654 224.567 24.92C224.735 25.186 224.819 25.515 224.819 25.907C224.819 26.621 224.553 27.1833 224.021 27.594C223.493 28 222.765 28.203 221.837 28.203ZM226.231 19.005V17.85H227.26V19.005H226.231ZM226.231 28V20.44H227.26V28H226.231ZM232.082 31.57C231.694 31.57 231.312 31.5117 230.934 31.395C230.56 31.283 230.215 31.1033 229.898 30.856C229.58 30.6133 229.314 30.296 229.1 29.904L230.031 29.386C230.241 29.806 230.535 30.107 230.913 30.289C231.295 30.4757 231.685 30.569 232.082 30.569C232.628 30.569 233.069 30.4663 233.405 30.261C233.745 30.0603 233.993 29.7617 234.147 29.365C234.301 28.9683 234.375 28.4737 234.371 27.881V25.865H234.49V20.44H235.407V27.895C235.407 28.1097 235.4 28.315 235.386 28.511C235.376 28.7117 235.355 28.9077 235.323 29.099C235.234 29.6637 235.05 30.128 234.77 30.492C234.494 30.856 234.13 31.1267 233.678 31.304C233.23 31.4813 232.698 31.57 232.082 31.57ZM232.012 28.21C231.307 28.21 230.705 28.035 230.206 27.685C229.706 27.3303 229.324 26.852 229.058 26.25C228.792 25.648 228.659 24.969 228.659 24.213C228.659 23.4617 228.789 22.785 229.051 22.183C229.317 21.581 229.697 21.105 230.192 20.755C230.686 20.405 231.279 20.23 231.97 20.23C232.679 20.23 233.276 20.4027 233.762 20.748C234.247 21.0933 234.613 21.567 234.861 22.169C235.113 22.7663 235.239 23.4477 235.239 24.213C235.239 24.9643 235.115 25.6433 234.868 26.25C234.62 26.852 234.256 27.3303 233.776 27.685C233.295 28.035 232.707 28.21 232.012 28.21ZM232.117 27.251C232.653 27.251 233.097 27.1203 233.447 26.859C233.797 26.5977 234.058 26.2383 234.231 25.781C234.403 25.319 234.49 24.7963 234.49 24.213C234.49 23.6203 234.403 23.0977 234.231 22.645C234.058 22.1877 233.797 21.8307 233.447 21.574C233.101 21.3173 232.665 21.189 232.138 21.189C231.596 21.189 231.148 21.322 230.794 21.588C230.439 21.854 230.175 22.2157 230.003 22.673C229.835 23.1303 229.751 23.6437 229.751 24.213C229.751 24.787 229.837 25.305 230.01 25.767C230.187 26.2243 230.451 26.586 230.801 26.852C231.151 27.118 231.589 27.251 232.117 27.251ZM242.544 28V24.143C242.544 23.723 242.504 23.338 242.425 22.988C242.346 22.6333 242.217 22.3253 242.04 22.064C241.867 21.798 241.641 21.5927 241.361 21.448C241.086 21.3033 240.75 21.231 240.353 21.231C239.989 21.231 239.667 21.294 239.387 21.42C239.112 21.546 238.878 21.728 238.687 21.966C238.5 22.1993 238.358 22.484 238.26 22.82C238.162 23.156 238.113 23.5387 238.113 23.968L237.385 23.807C237.385 23.0323 237.52 22.3813 237.791 21.854C238.062 21.3267 238.435 20.9277 238.911 20.657C239.387 20.3863 239.933 20.251 240.549 20.251C241.002 20.251 241.396 20.321 241.732 20.461C242.073 20.601 242.36 20.79 242.593 21.028C242.831 21.266 243.022 21.539 243.167 21.847C243.312 22.1503 243.417 22.4747 243.482 22.82C243.547 23.1607 243.58 23.5013 243.58 23.842V28H242.544ZM237.077 28V20.44H238.008V22.302H238.113V28H237.077ZM247.639 28V17.92H250.698C250.805 17.92 250.987 17.9223 251.244 17.927C251.505 17.9317 251.755 17.9503 251.993 17.983C252.758 18.0903 253.398 18.375 253.911 18.837C254.424 19.299 254.809 19.887 255.066 20.601C255.323 21.315 255.451 22.1013 255.451 22.96C255.451 23.8187 255.323 24.605 255.066 25.319C254.809 26.033 254.424 26.621 253.911 27.083C253.398 27.545 252.758 27.8297 251.993 27.937C251.76 27.965 251.51 27.9837 251.244 27.993C250.978 27.9977 250.796 28 250.698 28H247.639ZM248.703 27.013H250.698C250.889 27.013 251.095 27.0083 251.314 26.999C251.538 26.985 251.729 26.9617 251.888 26.929C252.476 26.8263 252.95 26.5883 253.309 26.215C253.673 25.8417 253.939 25.375 254.107 24.815C254.275 24.2503 254.359 23.632 254.359 22.96C254.359 22.2833 254.275 21.6627 254.107 21.098C253.939 20.5333 253.673 20.0667 253.309 19.698C252.945 19.3293 252.471 19.0937 251.888 18.991C251.729 18.9583 251.536 18.9373 251.307 18.928C251.083 18.914 250.88 18.907 250.698 18.907H248.703V27.013ZM256.905 19.005V17.85H257.934V19.005H256.905ZM256.905 28V20.44H257.934V28H256.905ZM259.753 28V20.44H260.677V22.26L260.495 22.022C260.579 21.798 260.689 21.5927 260.824 21.406C260.959 21.2147 261.106 21.0583 261.265 20.937C261.461 20.7643 261.69 20.6337 261.951 20.545C262.212 20.4517 262.476 20.398 262.742 20.384C263.008 20.3653 263.251 20.384 263.47 20.44V21.406C263.195 21.336 262.894 21.3197 262.567 21.357C262.24 21.3943 261.939 21.525 261.664 21.749C261.412 21.945 261.223 22.1807 261.097 22.456C260.971 22.7267 260.887 23.016 260.845 23.324C260.803 23.6273 260.782 23.9283 260.782 24.227V28H259.753ZM267.58 28.21C266.843 28.21 266.204 28.0467 265.662 27.72C265.126 27.3933 264.708 26.9337 264.409 26.341C264.111 25.7483 263.961 25.053 263.961 24.255C263.961 23.429 264.108 22.715 264.402 22.113C264.696 21.511 265.109 21.0467 265.641 20.72C266.178 20.3933 266.81 20.23 267.538 20.23C268.285 20.23 268.922 20.4027 269.449 20.748C269.977 21.0887 270.376 21.5787 270.646 22.218C270.917 22.8573 271.041 23.6203 271.017 24.507H269.967V24.143C269.949 23.163 269.736 22.4233 269.33 21.924C268.929 21.4247 268.341 21.175 267.566 21.175C266.754 21.175 266.131 21.4387 265.697 21.966C265.268 22.4933 265.053 23.2447 265.053 24.22C265.053 25.172 265.268 25.9117 265.697 26.439C266.131 26.9617 266.745 27.223 267.538 27.223C268.08 27.223 268.551 27.0993 268.952 26.852C269.358 26.6 269.678 26.2383 269.911 25.767L270.87 26.138C270.572 26.796 270.131 27.307 269.547 27.671C268.969 28.0303 268.313 28.21 267.58 28.21ZM264.689 24.507V23.646H270.464V24.507H264.689ZM275.427 28.21C274.666 28.21 274.022 28.0397 273.495 27.699C272.967 27.3583 272.566 26.8893 272.291 26.292C272.02 25.69 271.88 24.9993 271.871 24.22C271.88 23.4267 272.025 22.7313 272.305 22.134C272.585 21.532 272.988 21.0653 273.516 20.734C274.043 20.398 274.682 20.23 275.434 20.23C276.199 20.23 276.864 20.4167 277.429 20.79C277.998 21.1633 278.388 21.6743 278.598 22.323L277.59 22.645C277.412 22.1923 277.13 21.8423 276.743 21.595C276.36 21.343 275.921 21.217 275.427 21.217C274.871 21.217 274.412 21.3453 274.048 21.602C273.684 21.854 273.413 22.2063 273.236 22.659C273.058 23.1117 272.967 23.632 272.963 24.22C272.972 25.1253 273.182 25.8533 273.593 26.404C274.003 26.95 274.615 27.223 275.427 27.223C275.94 27.223 276.376 27.1063 276.736 26.873C277.1 26.635 277.375 26.2897 277.562 25.837L278.598 26.145C278.318 26.817 277.907 27.3303 277.366 27.685C276.824 28.035 276.178 28.21 275.427 28.21ZM283.879 28C283.454 28.0887 283.034 28.1237 282.619 28.105C282.208 28.0863 281.839 27.9977 281.513 27.839C281.191 27.6803 280.946 27.433 280.778 27.097C280.642 26.817 280.568 26.5347 280.554 26.25C280.544 25.9607 280.54 25.6317 280.54 25.263V18.34H281.562V25.221C281.562 25.5383 281.564 25.8043 281.569 26.019C281.578 26.229 281.627 26.4157 281.716 26.579C281.884 26.8917 282.15 27.0783 282.514 27.139C282.882 27.1997 283.337 27.1857 283.879 27.097V28ZM278.923 21.322V20.44H283.879V21.322H278.923ZM287.972 28.21C287.22 28.21 286.579 28.0397 286.047 27.699C285.515 27.3583 285.106 26.887 284.822 26.285C284.537 25.683 284.395 24.9923 284.395 24.213C284.395 23.4197 284.539 22.7243 284.829 22.127C285.118 21.5297 285.529 21.0653 286.061 20.734C286.597 20.398 287.234 20.23 287.972 20.23C288.728 20.23 289.372 20.4003 289.904 20.741C290.44 21.077 290.849 21.546 291.129 22.148C291.413 22.7453 291.556 23.4337 291.556 24.213C291.556 25.0063 291.413 25.704 291.129 26.306C290.844 26.9033 290.433 27.37 289.897 27.706C289.36 28.042 288.718 28.21 287.972 28.21ZM287.972 27.223C288.812 27.223 289.437 26.9453 289.848 26.39C290.258 25.83 290.464 25.1043 290.464 24.213C290.464 23.2983 290.256 22.5703 289.841 22.029C289.43 21.4877 288.807 21.217 287.972 21.217C287.407 21.217 286.94 21.3453 286.572 21.602C286.208 21.854 285.935 22.2063 285.753 22.659C285.575 23.107 285.487 23.625 285.487 24.213C285.487 25.123 285.697 25.8533 286.117 26.404C286.537 26.95 287.155 27.223 287.972 27.223ZM292.82 28V20.44H293.744V22.26L293.562 22.022C293.646 21.798 293.755 21.5927 293.891 21.406C294.026 21.2147 294.173 21.0583 294.332 20.937C294.528 20.7643 294.756 20.6337 295.018 20.545C295.279 20.4517 295.543 20.398 295.809 20.384C296.075 20.3653 296.317 20.384 296.537 20.44V21.406C296.261 21.336 295.96 21.3197 295.634 21.357C295.307 21.3943 295.006 21.525 294.731 21.749C294.479 21.945 294.29 22.1807 294.164 22.456C294.038 22.7267 293.954 23.016 293.912 23.324C293.87 23.6273 293.849 23.9283 293.849 24.227V28H292.82Z" fill="#9B978F"/>
<path d="M201.98 48V37.92H205.872C206.437 37.92 206.929 38.0367 207.349 38.27C207.769 38.5033 208.096 38.8183 208.329 39.215C208.562 39.607 208.679 40.041 208.679 40.517C208.679 41.0583 208.534 41.5413 208.245 41.966C207.956 42.386 207.568 42.6777 207.083 42.841L207.069 42.498C207.722 42.6847 208.236 43.0113 208.609 43.478C208.982 43.9447 209.169 44.5093 209.169 45.172C209.169 45.7553 209.045 46.2593 208.798 46.684C208.551 47.104 208.203 47.4283 207.755 47.657C207.307 47.8857 206.787 48 206.194 48H201.98ZM203.016 47.013H205.942C206.353 47.013 206.721 46.9407 207.048 46.796C207.375 46.6467 207.631 46.4367 207.818 46.166C208.009 45.8953 208.105 45.5687 208.105 45.186C208.105 44.8127 208.019 44.4767 207.846 44.178C207.673 43.8793 207.438 43.6413 207.139 43.464C206.845 43.282 206.509 43.191 206.131 43.191H203.016V47.013ZM203.016 42.218H205.865C206.187 42.218 206.481 42.1457 206.747 42.001C207.013 41.8517 207.223 41.6487 207.377 41.392C207.536 41.1353 207.615 40.839 207.615 40.503C207.615 40.027 207.449 39.6397 207.118 39.341C206.791 39.0423 206.374 38.893 205.865 38.893H203.016V42.218ZM210.286 48V40.44H211.21V42.26L211.028 42.022C211.112 41.798 211.222 41.5927 211.357 41.406C211.492 41.2147 211.639 41.0583 211.798 40.937C211.994 40.7643 212.223 40.6337 212.484 40.545C212.745 40.4517 213.009 40.398 213.275 40.384C213.541 40.3653 213.784 40.384 214.003 40.44V41.406C213.728 41.336 213.427 41.3197 213.1 41.357C212.773 41.3943 212.472 41.525 212.197 41.749C211.945 41.945 211.756 42.1807 211.63 42.456C211.504 42.7267 211.42 43.016 211.378 43.324C211.336 43.6273 211.315 43.9283 211.315 44.227V48H210.286ZM216.927 48.21C216.357 48.21 215.879 48.1073 215.492 47.902C215.109 47.6967 214.822 47.4237 214.631 47.083C214.439 46.7423 214.344 46.3713 214.344 45.97C214.344 45.5593 214.425 45.2093 214.589 44.92C214.757 44.626 214.983 44.3857 215.268 44.199C215.557 44.0123 215.891 43.87 216.269 43.772C216.651 43.6787 217.074 43.597 217.536 43.527C218.002 43.4523 218.457 43.3893 218.901 43.338C219.349 43.282 219.741 43.2283 220.077 43.177L219.713 43.401C219.727 42.6543 219.582 42.1013 219.279 41.742C218.975 41.3827 218.448 41.203 217.697 41.203C217.179 41.203 216.74 41.3197 216.381 41.553C216.026 41.7863 215.776 42.155 215.632 42.659L214.631 42.365C214.803 41.6883 215.151 41.1633 215.674 40.79C216.196 40.4167 216.875 40.23 217.711 40.23C218.401 40.23 218.987 40.3607 219.468 40.622C219.953 40.8787 220.296 41.252 220.497 41.742C220.59 41.9613 220.651 42.2063 220.679 42.477C220.707 42.7477 220.721 43.023 220.721 43.303V48H219.804V46.103L220.07 46.215C219.813 46.8637 219.414 47.3583 218.873 47.699C218.331 48.0397 217.683 48.21 216.927 48.21ZM217.046 47.321C217.526 47.321 217.946 47.2347 218.306 47.062C218.665 46.8893 218.954 46.6537 219.174 46.355C219.393 46.0517 219.535 45.711 219.601 45.333C219.657 45.0903 219.687 44.8243 219.692 44.535C219.696 44.241 219.699 44.0217 219.699 43.877L220.091 44.08C219.741 44.1267 219.36 44.1733 218.95 44.22C218.544 44.2667 218.142 44.3203 217.746 44.381C217.354 44.4417 216.999 44.514 216.682 44.598C216.467 44.6587 216.259 44.745 216.059 44.857C215.858 44.9643 215.692 45.109 215.562 45.291C215.436 45.473 215.373 45.6993 215.373 45.97C215.373 46.1893 215.426 46.4017 215.534 46.607C215.646 46.8123 215.823 46.9827 216.066 47.118C216.313 47.2533 216.64 47.321 217.046 47.321ZM227.723 48V44.143C227.723 43.723 227.683 43.338 227.604 42.988C227.525 42.6333 227.396 42.3253 227.219 42.064C227.046 41.798 226.82 41.5927 226.54 41.448C226.265 41.3033 225.929 41.231 225.532 41.231C225.168 41.231 224.846 41.294 224.566 41.42C224.291 41.546 224.057 41.728 223.866 41.966C223.679 42.1993 223.537 42.484 223.439 42.82C223.341 43.156 223.292 43.5387 223.292 43.968L222.564 43.807C222.564 43.0323 222.699 42.3813 222.97 41.854C223.241 41.3267 223.614 40.9277 224.09 40.657C224.566 40.3863 225.112 40.251 225.728 40.251C226.181 40.251 226.575 40.321 226.911 40.461C227.252 40.601 227.539 40.79 227.772 41.028C228.01 41.266 228.201 41.539 228.346 41.847C228.491 42.1503 228.596 42.4747 228.661 42.82C228.726 43.1607 228.759 43.5013 228.759 43.842V48H227.723ZM222.256 48V40.44H223.187V42.302H223.292V48H222.256ZM233.188 48.21C232.483 48.21 231.881 48.035 231.382 47.685C230.882 47.3303 230.5 46.852 230.234 46.25C229.968 45.648 229.835 44.969 229.835 44.213C229.835 43.4617 229.965 42.785 230.227 42.183C230.493 41.581 230.873 41.105 231.368 40.755C231.862 40.405 232.455 40.23 233.146 40.23C233.855 40.23 234.452 40.4027 234.938 40.748C235.423 41.0933 235.789 41.567 236.037 42.169C236.289 42.7663 236.415 43.4477 236.415 44.213C236.415 44.9643 236.291 45.6433 236.044 46.25C235.796 46.852 235.432 47.3303 234.952 47.685C234.471 48.035 233.883 48.21 233.188 48.21ZM233.293 47.251C233.829 47.251 234.273 47.1203 234.623 46.859C234.973 46.5977 235.234 46.2383 235.407 45.781C235.579 45.319 235.666 44.7963 235.666 44.213C235.666 43.6203 235.579 43.0977 235.407 42.645C235.234 42.1877 234.973 41.8307 234.623 41.574C234.277 41.3173 233.841 41.189 233.314 41.189C232.772 41.189 232.324 41.322 231.97 41.588C231.615 41.854 231.351 42.2157 231.179 42.673C231.011 43.1303 230.927 43.6437 230.927 44.213C230.927 44.787 231.013 45.305 231.186 45.767C231.363 46.2243 231.627 46.586 231.977 46.852C232.327 47.118 232.765 47.251 233.293 47.251ZM235.666 48V42.309H235.554V37.92H236.59V48H235.666ZM238.133 49.463L238.196 48.952C238.383 48.966 238.518 48.9287 238.602 48.84C238.686 48.7513 238.738 48.6323 238.756 48.483C238.775 48.3337 238.78 48.1727 238.77 48H238.133V46.523H239.33V48.28C239.33 48.7093 239.221 49.0313 239.001 49.246C238.787 49.4607 238.497 49.533 238.133 49.463ZM244.235 48V37.92H248.127C248.225 37.92 248.335 37.9247 248.456 37.934C248.582 37.9387 248.708 37.9527 248.834 37.976C249.361 38.0553 249.807 38.2397 250.171 38.529C250.54 38.8137 250.817 39.173 251.004 39.607C251.195 40.041 251.291 40.5217 251.291 41.049C251.291 41.5717 251.195 42.05 251.004 42.484C250.813 42.918 250.533 43.2797 250.164 43.569C249.8 43.8537 249.357 44.0357 248.834 44.115C248.708 44.1337 248.582 44.1477 248.456 44.157C248.335 44.1663 248.225 44.171 248.127 44.171H245.264V48H244.235ZM245.264 43.191H248.099C248.183 43.191 248.281 43.1863 248.393 43.177C248.505 43.1677 248.615 43.1513 248.722 43.128C249.067 43.0533 249.35 42.911 249.569 42.701C249.793 42.491 249.959 42.2413 250.066 41.952C250.178 41.6627 250.234 41.3617 250.234 41.049C250.234 40.7363 250.178 40.4353 250.066 40.146C249.959 39.852 249.793 39.6 249.569 39.39C249.35 39.18 249.067 39.0377 248.722 38.963C248.615 38.9397 248.505 38.9257 248.393 38.921C248.281 38.9117 248.183 38.907 248.099 38.907H245.264V43.191ZM252.404 48V40.44H253.328V42.26L253.146 42.022C253.23 41.798 253.34 41.5927 253.475 41.406C253.61 41.2147 253.757 41.0583 253.916 40.937C254.112 40.7643 254.341 40.6337 254.602 40.545C254.863 40.4517 255.127 40.398 255.393 40.384C255.659 40.3653 255.902 40.384 256.121 40.44V41.406C255.846 41.336 255.545 41.3197 255.218 41.357C254.891 41.3943 254.59 41.525 254.315 41.749C254.063 41.945 253.874 42.1807 253.748 42.456C253.622 42.7267 253.538 43.016 253.496 43.324C253.454 43.6273 253.433 43.9283 253.433 44.227V48H252.404ZM260.189 48.21C259.438 48.21 258.796 48.0397 258.264 47.699C257.732 47.3583 257.324 46.887 257.039 46.285C256.755 45.683 256.612 44.9923 256.612 44.213C256.612 43.4197 256.757 42.7243 257.046 42.127C257.336 41.5297 257.746 41.0653 258.278 40.734C258.815 40.398 259.452 40.23 260.189 40.23C260.945 40.23 261.589 40.4003 262.121 40.741C262.658 41.077 263.066 41.546 263.346 42.148C263.631 42.7453 263.773 43.4337 263.773 44.213C263.773 45.0063 263.631 45.704 263.346 46.306C263.062 46.9033 262.651 47.37 262.114 47.706C261.578 48.042 260.936 48.21 260.189 48.21ZM260.189 47.223C261.029 47.223 261.655 46.9453 262.065 46.39C262.476 45.83 262.681 45.1043 262.681 44.213C262.681 43.2983 262.474 42.5703 262.058 42.029C261.648 41.4877 261.025 41.217 260.189 41.217C259.625 41.217 259.158 41.3453 258.789 41.602C258.425 41.854 258.152 42.2063 257.97 42.659C257.793 43.107 257.704 43.625 257.704 44.213C257.704 45.123 257.914 45.8533 258.334 46.404C258.754 46.95 259.373 47.223 260.189 47.223ZM267.97 48.21C267.266 48.21 266.664 48.035 266.164 47.685C265.665 47.3303 265.282 46.852 265.016 46.25C264.75 45.648 264.617 44.969 264.617 44.213C264.617 43.4617 264.748 42.785 265.009 42.183C265.275 41.581 265.656 41.105 266.15 40.755C266.645 40.405 267.238 40.23 267.928 40.23C268.638 40.23 269.235 40.4027 269.72 40.748C270.206 41.0933 270.572 41.567 270.819 42.169C271.071 42.7663 271.197 43.4477 271.197 44.213C271.197 44.9643 271.074 45.6433 270.826 46.25C270.579 46.852 270.215 47.3303 269.734 47.685C269.254 48.035 268.666 48.21 267.97 48.21ZM268.075 47.251C268.612 47.251 269.055 47.1203 269.405 46.859C269.755 46.5977 270.017 46.2383 270.189 45.781C270.362 45.319 270.448 44.7963 270.448 44.213C270.448 43.6203 270.362 43.0977 270.189 42.645C270.017 42.1877 269.755 41.8307 269.405 41.574C269.06 41.3173 268.624 41.189 268.096 41.189C267.555 41.189 267.107 41.322 266.752 41.588C266.398 41.854 266.134 42.2157 265.961 42.673C265.793 43.1303 265.709 43.6437 265.709 44.213C265.709 44.787 265.796 45.305 265.968 45.767C266.146 46.2243 266.409 46.586 266.759 46.852C267.109 47.118 267.548 47.251 268.075 47.251ZM270.448 48V42.309H270.336V37.92H271.372V48H270.448ZM275.947 48.189C275.495 48.189 275.098 48.119 274.757 47.979C274.421 47.839 274.134 47.65 273.896 47.412C273.663 47.174 273.474 46.9033 273.329 46.6C273.185 46.292 273.08 45.9677 273.014 45.627C272.949 45.2817 272.916 44.9387 272.916 44.598V40.44H273.952V44.297C273.952 44.7123 273.992 45.0973 274.071 45.452C274.151 45.8067 274.277 46.117 274.449 46.383C274.627 46.6443 274.853 46.8473 275.128 46.992C275.408 47.1367 275.747 47.209 276.143 47.209C276.507 47.209 276.827 47.146 277.102 47.02C277.382 46.894 277.616 46.7143 277.802 46.481C277.994 46.243 278.138 45.956 278.236 45.62C278.334 45.2793 278.383 44.8967 278.383 44.472L279.111 44.633C279.111 45.4077 278.976 46.0587 278.705 46.586C278.435 47.1133 278.061 47.5123 277.585 47.783C277.109 48.0537 276.563 48.189 275.947 48.189ZM278.488 48V46.138H278.383V40.44H279.412V48H278.488ZM284.225 48.21C283.464 48.21 282.82 48.0397 282.293 47.699C281.765 47.3583 281.364 46.8893 281.089 46.292C280.818 45.69 280.678 44.9993 280.669 44.22C280.678 43.4267 280.823 42.7313 281.103 42.134C281.383 41.532 281.786 41.0653 282.314 40.734C282.841 40.398 283.48 40.23 284.232 40.23C284.997 40.23 285.662 40.4167 286.227 40.79C286.796 41.1633 287.186 41.6743 287.396 42.323L286.388 42.645C286.21 42.1923 285.928 41.8423 285.541 41.595C285.158 41.343 284.719 41.217 284.225 41.217C283.669 41.217 283.21 41.3453 282.846 41.602C282.482 41.854 282.211 42.2063 282.034 42.659C281.856 43.1117 281.765 43.632 281.761 44.22C281.77 45.1253 281.98 45.8533 282.391 46.404C282.801 46.95 283.413 47.223 284.225 47.223C284.738 47.223 285.174 47.1063 285.534 46.873C285.898 46.635 286.173 46.2897 286.36 45.837L287.396 46.145C287.116 46.817 286.705 47.3303 286.164 47.685C285.622 48.035 284.976 48.21 284.225 48.21ZM292.677 48C292.252 48.0887 291.832 48.1237 291.417 48.105C291.006 48.0863 290.637 47.9977 290.311 47.839C289.989 47.6803 289.744 47.433 289.576 47.097C289.44 46.817 289.366 46.5347 289.352 46.25C289.342 45.9607 289.338 45.6317 289.338 45.263V38.34H290.36V45.221C290.36 45.5383 290.362 45.8043 290.367 46.019C290.376 46.229 290.425 46.4157 290.514 46.579C290.682 46.8917 290.948 47.0783 291.312 47.139C291.68 47.1997 292.135 47.1857 292.677 47.097V48ZM287.721 41.322V40.44H292.677V41.322H287.721ZM299.65 48.21C299.09 48.21 298.57 48.1307 298.089 47.972C297.613 47.8087 297.214 47.5543 296.892 47.209C296.64 46.9383 296.453 46.6373 296.332 46.306C296.211 45.97 296.143 45.6153 296.129 45.242C296.124 44.8873 296.176 44.535 296.283 44.185C296.39 43.835 296.558 43.5247 296.787 43.254C296.922 43.086 297.074 42.946 297.242 42.834C297.415 42.722 297.592 42.6263 297.774 42.547C297.424 42.183 297.156 41.847 296.969 41.539C296.787 41.2263 296.696 40.8437 296.696 40.391C296.696 39.873 296.827 39.3993 297.088 38.97C297.354 38.5407 297.72 38.221 298.187 38.011C298.425 37.9037 298.668 37.829 298.915 37.787C299.167 37.7403 299.417 37.717 299.664 37.717C300.042 37.717 300.413 37.7707 300.777 37.878C301.141 37.9807 301.451 38.144 301.708 38.368C301.881 38.5033 302.032 38.6643 302.163 38.851C302.294 39.033 302.396 39.2243 302.471 39.425L301.477 39.719C301.379 39.467 301.216 39.2547 300.987 39.082C300.81 38.942 300.604 38.844 300.371 38.788C300.142 38.732 299.911 38.704 299.678 38.704C299.281 38.704 298.922 38.781 298.6 38.935C298.32 39.075 298.11 39.2687 297.97 39.516C297.83 39.7633 297.76 40.0527 297.76 40.384C297.76 40.6687 297.807 40.9043 297.9 41.091C297.993 41.273 298.129 41.4713 298.306 41.686C298.409 41.798 298.523 41.9123 298.649 42.029C298.775 42.141 298.903 42.2577 299.034 42.379L302.226 45.34C302.245 45.2093 302.256 45.0833 302.261 44.962C302.266 44.836 302.268 44.7123 302.268 44.591L302.261 43.114H303.234V44.661C303.234 45.0297 303.22 45.3307 303.192 45.564C303.164 45.7973 303.127 45.991 303.08 46.145L304.382 47.342L303.703 48.063L302.59 47.013C302.436 47.2137 302.24 47.3933 302.002 47.552C301.769 47.7107 301.535 47.8343 301.302 47.923C301.05 48.035 300.784 48.1097 300.504 48.147C300.224 48.189 299.939 48.21 299.65 48.21ZM299.664 47.216C299.93 47.216 300.17 47.1997 300.385 47.167C300.6 47.1343 300.805 47.0667 301.001 46.964C301.248 46.8333 301.433 46.712 301.554 46.6C301.675 46.4833 301.773 46.3807 301.848 46.292L298.572 43.296C298.376 43.3567 298.192 43.4407 298.019 43.548C297.851 43.6507 297.706 43.7743 297.585 43.919C297.45 44.087 297.349 44.2807 297.284 44.5C297.219 44.7193 297.186 44.9503 297.186 45.193C297.195 45.4497 297.237 45.6877 297.312 45.907C297.391 46.1217 297.508 46.313 297.662 46.481C297.881 46.7377 298.175 46.9243 298.544 47.041C298.913 47.1577 299.286 47.216 299.664 47.216ZM307.771 48V37.92H314.071V38.907H308.8V42.393H313.231V43.38H308.8V47.013H314.071V48H307.771ZM314.635 48L317.589 44.178L314.698 40.44H315.93L318.191 43.387L320.431 40.44H321.663L318.772 44.178L321.733 48H320.494L318.191 44.969L315.874 48H314.635ZM325.973 48.21C325.278 48.21 324.69 48.035 324.209 47.685C323.728 47.3303 323.364 46.852 323.117 46.25C322.87 45.6433 322.746 44.9643 322.746 44.213C322.746 43.4477 322.87 42.7663 323.117 42.169C323.369 41.567 323.738 41.0933 324.223 40.748C324.708 40.4027 325.306 40.23 326.015 40.23C326.706 40.23 327.298 40.405 327.793 40.755C328.288 41.105 328.666 41.581 328.927 42.183C329.193 42.785 329.326 43.4617 329.326 44.213C329.326 44.969 329.193 45.648 328.927 46.25C328.661 46.852 328.278 47.3303 327.779 47.685C327.28 48.035 326.678 48.21 325.973 48.21ZM322.571 51.36V40.44H323.495V46.131H323.607V51.36H322.571ZM325.868 47.251C326.395 47.251 326.834 47.118 327.184 46.852C327.534 46.586 327.795 46.2243 327.968 45.767C328.145 45.305 328.234 44.787 328.234 44.213C328.234 43.6437 328.148 43.1303 327.975 42.673C327.802 42.2157 327.539 41.854 327.184 41.588C326.834 41.322 326.388 41.189 325.847 41.189C325.32 41.189 324.881 41.3173 324.531 41.574C324.186 41.8307 323.927 42.1877 323.754 42.645C323.581 43.0977 323.495 43.6203 323.495 44.213C323.495 44.7963 323.581 45.319 323.754 45.781C323.927 46.2383 324.188 46.5977 324.538 46.859C324.888 47.1203 325.331 47.251 325.868 47.251ZM333.782 48.21C333.045 48.21 332.405 48.0467 331.864 47.72C331.327 47.3933 330.91 46.9337 330.611 46.341C330.312 45.7483 330.163 45.053 330.163 44.255C330.163 43.429 330.31 42.715 330.604 42.113C330.898 41.511 331.311 41.0467 331.843 40.72C332.38 40.3933 333.012 40.23 333.74 40.23C334.487 40.23 335.124 40.4027 335.651 40.748C336.178 41.0887 336.577 41.5787 336.848 42.218C337.119 42.8573 337.242 43.6203 337.219 44.507H336.169V44.143C336.15 43.163 335.938 42.4233 335.532 41.924C335.131 41.4247 334.543 41.175 333.768 41.175C332.956 41.175 332.333 41.4387 331.899 41.966C331.47 42.4933 331.255 43.2447 331.255 44.22C331.255 45.172 331.47 45.9117 331.899 46.439C332.333 46.9617 332.947 47.223 333.74 47.223C334.281 47.223 334.753 47.0993 335.154 46.852C335.56 46.6 335.88 46.2383 336.113 45.767L337.072 46.138C336.773 46.796 336.332 47.307 335.749 47.671C335.17 48.0303 334.515 48.21 333.782 48.21ZM330.891 44.507V43.646H336.666V44.507H330.891ZM338.493 48V40.44H339.417V42.26L339.235 42.022C339.319 41.798 339.428 41.5927 339.564 41.406C339.699 41.2147 339.846 41.0583 340.005 40.937C340.201 40.7643 340.429 40.6337 340.691 40.545C340.952 40.4517 341.216 40.398 341.482 40.384C341.748 40.3653 341.99 40.384 342.21 40.44V41.406C341.934 41.336 341.633 41.3197 341.307 41.357C340.98 41.3943 340.679 41.525 340.404 41.749C340.152 41.945 339.963 42.1807 339.837 42.456C339.711 42.7267 339.627 43.016 339.585 43.324C339.543 43.6273 339.522 43.9283 339.522 44.227V48H338.493ZM343.397 39.005V37.85H344.426V39.005H343.397ZM343.397 48V40.44H344.426V48H343.397ZM349.444 48.21C348.707 48.21 348.067 48.0467 347.526 47.72C346.989 47.3933 346.572 46.9337 346.273 46.341C345.974 45.7483 345.825 45.053 345.825 44.255C345.825 43.429 345.972 42.715 346.266 42.113C346.56 41.511 346.973 41.0467 347.505 40.72C348.042 40.3933 348.674 40.23 349.402 40.23C350.149 40.23 350.786 40.4027 351.313 40.748C351.84 41.0887 352.239 41.5787 352.51 42.218C352.781 42.8573 352.904 43.6203 352.881 44.507H351.831V44.143C351.812 43.163 351.6 42.4233 351.194 41.924C350.793 41.4247 350.205 41.175 349.43 41.175C348.618 41.175 347.995 41.4387 347.561 41.966C347.132 42.4933 346.917 43.2447 346.917 44.22C346.917 45.172 347.132 45.9117 347.561 46.439C347.995 46.9617 348.609 47.223 349.402 47.223C349.943 47.223 350.415 47.0993 350.816 46.852C351.222 46.6 351.542 46.2383 351.775 45.767L352.734 46.138C352.435 46.796 351.994 47.307 351.411 47.671C350.832 48.0303 350.177 48.21 349.444 48.21ZM346.553 44.507V43.646H352.328V44.507H346.553ZM359.409 48V44.143C359.409 43.723 359.37 43.338 359.29 42.988C359.211 42.6333 359.083 42.3253 358.905 42.064C358.733 41.798 358.506 41.5927 358.226 41.448C357.951 41.3033 357.615 41.231 357.218 41.231C356.854 41.231 356.532 41.294 356.252 41.42C355.977 41.546 355.744 41.728 355.552 41.966C355.366 42.1993 355.223 42.484 355.125 42.82C355.027 43.156 354.978 43.5387 354.978 43.968L354.25 43.807C354.25 43.0323 354.386 42.3813 354.656 41.854C354.927 41.3267 355.3 40.9277 355.776 40.657C356.252 40.3863 356.798 40.251 357.414 40.251C357.867 40.251 358.261 40.321 358.597 40.461C358.938 40.601 359.225 40.79 359.458 41.028C359.696 41.266 359.888 41.539 360.032 41.847C360.177 42.1503 360.282 42.4747 360.347 42.82C360.413 43.1607 360.445 43.5013 360.445 43.842V48H359.409ZM353.942 48V40.44H354.873V42.302H354.978V48H353.942ZM365.077 48.21C364.316 48.21 363.672 48.0397 363.145 47.699C362.618 47.3583 362.216 46.8893 361.941 46.292C361.67 45.69 361.53 44.9993 361.521 44.22C361.53 43.4267 361.675 42.7313 361.955 42.134C362.235 41.532 362.639 41.0653 363.166 40.734C363.693 40.398 364.333 40.23 365.084 40.23C365.849 40.23 366.514 40.4167 367.079 40.79C367.648 41.1633 368.038 41.6743 368.248 42.323L367.24 42.645C367.063 42.1923 366.78 41.8423 366.393 41.595C366.01 41.343 365.572 41.217 365.077 41.217C364.522 41.217 364.062 41.3453 363.698 41.602C363.334 41.854 363.063 42.2063 362.886 42.659C362.709 43.1117 362.618 43.632 362.613 44.22C362.622 45.1253 362.832 45.8533 363.243 46.404C363.654 46.95 364.265 47.223 365.077 47.223C365.59 47.223 366.027 47.1063 366.386 46.873C366.75 46.635 367.025 46.2897 367.212 45.837L368.248 46.145C367.968 46.817 367.557 47.3303 367.016 47.685C366.475 48.035 365.828 48.21 365.077 48.21ZM372.407 48.21C371.669 48.21 371.03 48.0467 370.489 47.72C369.952 47.3933 369.534 46.9337 369.236 46.341C368.937 45.7483 368.788 45.053 368.788 44.255C368.788 43.429 368.935 42.715 369.229 42.113C369.523 41.511 369.936 41.0467 370.468 40.72C371.004 40.3933 371.637 40.23 372.365 40.23C373.111 40.23 373.748 40.4027 374.276 40.748C374.803 41.0887 375.202 41.5787 375.473 42.218C375.743 42.8573 375.867 43.6203 375.844 44.507H374.794V44.143C374.775 43.163 374.563 42.4233 374.157 41.924C373.755 41.4247 373.167 41.175 372.393 41.175C371.581 41.175 370.958 41.4387 370.524 41.966C370.094 42.4933 369.88 43.2447 369.88 44.22C369.88 45.172 370.094 45.9117 370.524 46.439C370.958 46.9617 371.571 47.223 372.365 47.223C372.906 47.223 373.377 47.0993 373.779 46.852C374.185 46.6 374.504 46.2383 374.738 45.767L375.697 46.138C375.398 46.796 374.957 47.307 374.374 47.671C373.795 48.0303 373.139 48.21 372.407 48.21ZM369.516 44.507V43.646H375.291V44.507H369.516Z" fill="#64625E"/>
<defs>
<clipPath id="clip0_214_188">
<rect width="154.274" height="47.996" fill="white" transform="translate(8.32001 8.32001)"/>
</clipPath>
</defs>
</svg>
