<svg width="171" height="65" viewBox="0 0 171 65" fill="none" xmlns="http://www.w3.org/2000/svg">
<g clip-path="url(#clip0_215_189)">
<path d="M114.338 8.34601C117.276 10.452 116.106 15.886 115.456 18.98C113.87 26.39 110.49 33.722 107.136 40.456C109.762 41.6 113.428 39.754 115.456 38.038C116.262 37.362 118.134 34.554 118.862 34.606C119.59 34.658 119.824 35.308 119.642 35.776C119.46 36.244 119.096 36.14 118.888 36.452C118.368 37.128 117.146 38.714 116.808 39.39C116.418 40.17 115.872 41.392 117.224 41.236C118.03 41.132 120.968 38.844 121.592 38.168C122.372 37.336 122.658 36.062 123.49 35.282C123.932 35.412 124.4 35.854 124.374 36.348C124.348 36.842 123.646 37.31 123.698 37.856C124.868 37.18 127.65 34.164 129.002 35.36C130.354 36.556 128.144 39.078 127.806 40.17C127.468 41.262 128.378 40.482 128.664 40.43C131.992 39.728 134.046 35.334 136.542 33.488C138.206 34.84 137.244 34.58 136.438 35.542C134.514 37.856 135.294 38.246 135.242 40.768C135.164 44.252 130.354 44.148 130.796 40.664C129.73 41.392 128.352 42.224 127.286 41.08C126.22 39.936 127.494 38.012 127.884 36.66L120.864 42.432C120.474 42.328 120.032 41.938 119.98 41.522C119.928 41.106 120.396 40.924 120.344 40.456C118.706 41.626 115.3 44.278 114.936 40.664C113.272 41.808 111.14 42.51 109.112 42.172C108.098 42.016 107.5 41.392 106.538 41.262C106.33 41.86 106.07 42.458 105.758 42.978C103.912 46.15 99.6216 53.066 96.0076 54.106C92.3936 55.146 91.9256 52.988 91.6916 50.57C91.2236 45.812 92.8616 40.742 94.0836 36.218C92.4976 38.038 89.0656 42.978 86.6736 43.368C83.6836 43.862 84.6456 39.078 85.0096 37.466C85.8676 33.67 87.8696 29.588 88.4416 25.844C88.7016 24.206 89.0136 22.204 86.9336 21.814C83.6056 21.216 79.1336 25.844 78.6396 28.99C76.9236 28.808 77.4956 27.534 77.9376 26.39C79.2896 22.958 82.6696 19.266 86.7256 20.618C91.3276 22.126 89.2996 27.846 88.3896 31.2C87.9736 32.656 84.8536 41.626 85.4776 42.25C87.5316 42.38 89.3516 39.91 90.5736 38.428C92.5756 35.984 94.2136 33.202 96.0076 30.602L96.3196 30.498C96.9176 30.784 97.2816 31.174 97.0736 31.876C95.7736 35.646 94.3176 39.39 93.4076 43.264C92.9656 45.084 90.9116 52.884 94.0316 53.092C97.2816 53.326 102.118 46.176 103.652 43.654C104.016 43.056 105.368 40.924 105.498 40.456C105.68 39.728 104.536 38.168 104.276 37.232C102.638 31.486 105.966 21.086 108.41 15.678C109.606 13.052 111.088 10.062 113.402 8.32001H114.416L114.338 8.34601ZM114.754 9.54201C113.87 8.65801 110.724 14.196 110.438 14.768C107.656 20.176 104.016 30.94 105.186 36.894C105.342 37.726 105.68 38.48 105.94 39.26C106.07 39.364 106.304 38.922 106.382 38.792C107.994 36.244 109.918 31.33 111.062 28.418C113.324 22.594 115.612 15.834 114.78 9.54201H114.754ZM131.81 42.068C134.696 42.172 133.734 39.494 134.02 37.648L131.628 39.962C132.642 40.664 132.096 41.158 131.836 42.068H131.81Z" fill="#D5DE31"/>
<path d="M8.36158 43.888C8.95958 39.416 14.9916 37.648 18.5536 36.322C22.7136 34.736 27.0036 33.462 31.1636 31.85C33.2176 28.704 35.4796 25.22 36.9096 21.736C38.3396 18.252 39.2756 15.522 35.6616 14.274C29.5256 12.168 18.5796 17.03 14.6016 21.892C12.8336 24.076 10.4156 29.198 13.4056 31.304C14.2636 31.928 15.7976 31.824 15.5896 33.228C11.2736 32.214 9.99958 28.47 11.3776 24.492C13.8996 17.186 25.8336 11.83 33.1396 12.584C37.3516 13 39.9256 15.938 38.9896 20.202C38.2356 23.66 35.4536 27.664 33.6596 30.732C33.3996 31.382 34.6216 30.68 34.8036 30.654C35.1416 30.628 35.7136 30.784 35.8436 31.148C36.2596 32.422 33.0356 32.37 32.3596 33.02C28.7456 38.246 25.1316 43.498 20.9196 48.282C18.2936 51.298 15.4596 54.288 11.9756 56.316H10.3636C9.66158 55.926 8.95958 54.574 8.95958 53.794V50.778L8.36158 47.268C8.46558 46.202 8.23158 44.902 8.36158 43.862V43.888ZM29.6556 34.034C24.9236 35.776 19.6456 37.154 15.0696 39.208C7.94558 42.406 9.66158 45.682 10.1816 52.182C10.7016 58.682 9.97358 54.314 10.3896 55.198C11.2996 55.848 16.8896 50.362 17.7216 49.478C19.8536 47.242 21.6996 44.746 23.7276 42.432L29.6556 34.008V34.034Z" fill="#D5DE31"/>
<path d="M162.516 34.034V34.84C161.346 35.646 160.124 37.31 160.098 38.766C160.098 40.04 160.8 41.21 159.812 42.484C158.824 43.758 155.808 43.134 155.886 41.08C153.26 42.458 149.126 44.278 148.268 40.066C148.06 39.858 146.058 42.042 144.524 41.522C142.99 41.002 143.874 38.012 144.472 36.66C144.342 36.504 141.664 38.636 141.378 38.87C140.598 39.52 138.154 42.146 137.66 42.38C137.166 42.614 136.438 41.86 136.464 41.366L139.974 35.256C140.338 35.49 140.832 35.672 140.884 36.14C140.936 36.608 140.286 37.258 140.182 37.83C141.43 37.18 144.264 34.086 145.616 35.412C146.838 36.608 144.836 39.13 144.316 40.352C145.122 40.716 145.902 40.196 146.578 39.806C148.476 38.766 148.346 37.83 149.542 36.348C150.452 35.204 154.144 31.694 155.444 33.644C156.536 35.282 154.456 37.336 153.026 38.038C151.596 38.74 149.828 38.792 149.568 39.208C149.308 39.624 149.178 40.742 149.62 41.106C150.816 42.068 154.69 40.274 155.912 39.52C158.226 38.09 159.526 35.308 161.58 33.54L162.594 34.06L162.516 34.034ZM151.076 37.05C152.48 36.894 153.858 35.802 154.274 34.45C154.144 34.294 151.18 36.556 151.076 37.05ZM156.9 42.068C159.89 42.172 158.824 39.364 159.318 37.44C158.85 37.674 158.954 38.194 158.642 38.662C158.33 39.13 157.212 39.806 157.16 39.884C157.004 40.144 157.81 41.418 156.926 42.068H156.9Z" fill="#D5DE31"/>
<path d="M37.8716 37.856C38.8336 37.804 40.1336 38.09 40.9396 37.466C41.7456 36.842 42.7076 33.826 43.6176 33.644C44.5276 33.462 44.5016 34.19 44.5016 34.554C44.5016 34.918 43.4356 36.14 43.3056 36.66C43.5136 36.842 45.8276 35.334 46.8156 36.478C47.8036 37.622 47.0756 37.648 47.6736 37.856C47.8816 37.908 49.7276 37.544 49.9876 37.44C51.3396 36.842 51.4436 35.672 53.6276 35.906C55.8116 36.14 54.8236 36.4 55.4476 36.894L56.5916 35.334C57.1376 35.022 57.9436 35.724 57.8656 36.322L53.5496 44.538C56.5136 44.174 59.5036 44.044 62.4936 44.122C64.3916 44.174 66.8356 44.304 68.7076 44.538C69.5396 44.642 70.1376 45.032 70.0076 45.942C64.2876 45.422 58.4116 45.214 52.6916 45.994C52.2496 46.176 50.1696 49.79 49.5976 50.544C49.0256 51.298 47.2056 53.872 46.1916 53.976C44.1376 54.184 41.4856 51.844 41.9276 49.712C42.6036 46.514 48.8176 45.136 51.4956 44.642L53.9136 40.144C51.6256 42.302 47.2836 43.29 49.1036 38.532C48.2976 38.48 47.6736 38.844 46.8416 38.688C44.9176 38.298 45.9056 36.4 43.2276 38.168C40.5496 39.936 40.5236 41.184 39.1456 43.134C36.5976 43.004 40.2896 39.104 40.0816 38.922C39.1976 39.234 38.5476 39.104 37.6636 38.922C37.4816 40.976 34.7516 44.98 32.4636 43.03C30.5136 41.366 32.2296 36.686 34.3356 35.75L35.0636 36.322C35.1936 36.14 33.9456 33.878 35.5576 33.696C37.4296 33.488 38.2616 36.452 37.8716 37.934V37.856ZM36.6756 34.84C35.1936 34.476 36.2596 37.44 36.8836 37.05L36.6756 34.84ZM35.4536 36.66L35.0376 36.79C34.9076 37.336 34.3096 37.57 34.0496 37.96C33.3476 39 31.3456 43.602 34.1276 41.834C35.2976 41.106 36.1296 39.468 36.4416 38.194L35.4536 36.634V36.66ZM49.9096 41.054C52.0676 41.054 53.7576 39.182 54.9276 37.544C53.5496 35.49 49.1556 40.3 49.9096 41.054ZM50.5076 46.28C48.3756 46.514 42.7596 48.49 43.0976 51.168C43.4356 53.846 45.3076 52.832 46.2956 52.182C47.2836 51.532 48.3756 49.686 48.7916 49.062C49.4156 48.178 49.9356 47.19 50.5076 46.28Z" fill="#D5DE31"/>
<path d="M58.7756 38.896C56.9816 43.238 63.0396 40.69 64.8336 39.624C66.8616 38.428 67.3556 37.232 68.4736 35.256C69.9556 35.932 69.3056 36.738 68.7856 37.856C69.8516 37.206 72.2176 34.866 73.4396 35.074C75.8836 35.49 73.4396 39.338 72.7896 40.456C73.5436 41.002 76.2996 39.026 76.9756 38.532C77.6516 38.038 77.8856 37.258 78.7956 37.44C79.1596 37.804 77.2096 39.572 76.8716 39.832C75.9096 40.638 74.1676 42.094 72.8936 41.418C71.9056 40.898 71.8276 39.988 72.0096 38.974C72.1916 37.96 72.9196 37.414 72.8676 36.608L66.0036 42.406L65.0156 41.418L65.2236 40.794C63.2476 41.912 60.1796 43.732 58.1776 41.73C55.4476 39 59.2436 34.996 61.6616 33.618C62.8056 32.968 64.5476 32.448 64.7556 34.268C65.0676 37.102 61.0896 38.766 58.7496 38.818L58.7756 38.896ZM60.1536 37.258C61.4536 36.738 63.1176 36.01 63.3516 34.45C62.5196 35.048 61.4796 35.646 60.7516 36.348C60.0236 37.05 60.1016 36.842 60.1536 37.258Z" fill="#D5DE31"/>
<path d="M121.904 30.03C124.192 30.498 120.942 33.774 120.318 33.618C119.694 33.462 119.564 32.838 119.616 32.552L121.93 30.03H121.904Z" fill="#D5DE31"/>
</g>
<defs>
<clipPath id="clip0_215_189">
<rect width="154.274" height="47.996" fill="white" transform="translate(8.32001 8.32001)"/>
</clipPath>
</defs>
</svg>
