<svg xmlns="http://www.w3.org/2000/svg" width="2508" height="627" viewBox="0 0 2508 627">
  <defs>
    <linearGradient id="woodBase" x1="0" y1="180" x2="0" y2="450" gradientUnits="userSpaceOnUse">
      <stop offset="0%" stop-color="#F0C57C"/>
      <stop offset="18%" stop-color="#F6D18E"/>
      <stop offset="36%" stop-color="#E8BA70"/>
      <stop offset="52%" stop-color="#DFA457"/>
      <stop offset="68%" stop-color="#EBC27E"/>
      <stop offset="84%" stop-color="#D39647"/>
      <stop offset="100%" stop-color="#BA7330"/>
    </linearGradient>

    <linearGradient id="woodEdgeShade" x1="0" y1="188" x2="0" y2="439" gradientUnits="userSpaceOnUse">
      <stop offset="0%" stop-color="#9E5D24" stop-opacity="0.48"/>
      <stop offset="10%" stop-color="#9E5D24" stop-opacity="0.16"/>
      <stop offset="50%" stop-color="#9E5D24" stop-opacity="0"/>
      <stop offset="90%" stop-color="#8C4F1F" stop-opacity="0.16"/>
      <stop offset="100%" stop-color="#8C4F1F" stop-opacity="0.42"/>
    </linearGradient>

    <linearGradient id="centerGlow" x1="0" y1="0" x2="0" y2="1">
      <stop offset="0%" stop-color="#FFF2C9" stop-opacity="0.34"/>
      <stop offset="50%" stop-color="#FFF2C9" stop-opacity="0.10"/>
      <stop offset="100%" stop-color="#FFF2C9" stop-opacity="0"/>
    </linearGradient>

    <linearGradient id="bladeWarmth" x1="1820" y1="0" x2="2495" y2="0" gradientUnits="userSpaceOnUse">
      <stop offset="0%" stop-color="#E7B56C" stop-opacity="0.18"/>
      <stop offset="100%" stop-color="#D48431" stop-opacity="0.24"/>
    </linearGradient>

    <clipPath id="paddleClip">
      <path d="M 40 279
C 40 252, 47 235, 71 230
C 92 225, 114 228, 125 242
C 133 252, 154 256, 186 256
L 1640 256
C 1710 256, 1765 247, 1825 226
C 1885 205, 1960 190, 2065 188
L 2410 188
C 2465 188, 2495 213, 2495 265
L 2495 362
C 2495 414, 2465 439, 2410 439
L 2065 439
C 1960 437, 1885 422, 1825 401
C 1765 380, 1710 371, 1640 371
L 186 371
C 154 371, 133 375, 125 385
C 114 399, 92 402, 71 397
C 47 392, 40 375, 40 348
C 40 325, 40 302, 40 279
Z"/>
    </clipPath>
  </defs>

  <!-- Main silhouette -->
  <path d="M 40 279
C 40 252, 47 235, 71 230
C 92 225, 114 228, 125 242
C 133 252, 154 256, 186 256
L 1640 256
C 1710 256, 1765 247, 1825 226
C 1885 205, 1960 190, 2065 188
L 2410 188
C 2465 188, 2495 213, 2495 265
L 2495 362
C 2495 414, 2465 439, 2410 439
L 2065 439
C 1960 437, 1885 422, 1825 401
C 1765 380, 1710 371, 1640 371
L 186 371
C 154 371, 133 375, 125 385
C 114 399, 92 402, 71 397
C 47 392, 40 375, 40 348
C 40 325, 40 302, 40 279
Z" fill="url(#woodBase)" stroke="#B56E2B" stroke-width="4" stroke-linejoin="round"/>

  <!-- Subtle edge shading -->
  <path d="M 40 279
C 40 252, 47 235, 71 230
C 92 225, 114 228, 125 242
C 133 252, 154 256, 186 256
L 1640 256
C 1710 256, 1765 247, 1825 226
C 1885 205, 1960 190, 2065 188
L 2410 188
C 2465 188, 2495 213, 2495 265
L 2495 362
C 2495 414, 2465 439, 2410 439
L 2065 439
C 1960 437, 1885 422, 1825 401
C 1765 380, 1710 371, 1640 371
L 186 371
C 154 371, 133 375, 125 385
C 114 399, 92 402, 71 397
C 47 392, 40 375, 40 348
C 40 325, 40 302, 40 279
Z" fill="url(#woodEdgeShade)"/>

  <!-- Soft center highlight -->
  <path d="M 40 279
C 40 252, 47 235, 71 230
C 92 225, 114 228, 125 242
C 133 252, 154 256, 186 256
L 1640 256
C 1710 256, 1765 247, 1825 226
C 1885 205, 1960 190, 2065 188
L 2410 188
C 2465 188, 2495 213, 2495 265
L 2495 362
C 2495 414, 2465 439, 2410 439
L 2065 439
C 1960 437, 1885 422, 1825 401
C 1765 380, 1710 371, 1640 371
L 186 371
C 154 371, 133 375, 125 385
C 114 399, 92 402, 71 397
C 47 392, 40 375, 40 348
C 40 325, 40 302, 40 279
Z" fill="url(#centerGlow)"/>

  <!-- Slightly warmer blade tint -->
  <path d="M 1760 215 L 2495 215 L 2495 412 L 1760 412 Z" fill="url(#bladeWarmth)" clip-path="url(#paddleClip)"/>

  <!-- Wood grain -->
  <g clip-path="url(#paddleClip)" fill="none" stroke-linecap="round">
    <!-- long shaft grain -->
    <path d="M 70 266 C 280 270, 650 265, 1050 272 C 1350 276, 1580 270, 1795 255"
          stroke="#A45F27" stroke-width="2.6" opacity="0.26"/>
    <path d="M 78 290 C 320 297, 720 286, 1160 293 C 1480 299, 1740 295, 1970 285"
          stroke="#F9E8BE" stroke-width="2.8" opacity="0.28"/>
    <path d="M 70 312 C 300 316, 740 307, 1200 314 C 1500 319, 1760 316, 2100 298"
          stroke="#AF6A2E" stroke-width="2.3" opacity="0.20"/>
    <path d="M 70 338 C 380 334, 780 343, 1270 334 C 1530 329, 1730 332, 1880 340"
          stroke="#F2DFB0" stroke-width="2.4" opacity="0.22"/>
    <path d="M 95 359 C 410 355, 820 364, 1250 356 C 1470 352, 1620 352, 1760 362"
          stroke="#9B5926" stroke-width="2.2" opacity="0.20"/>

    <!-- blade grain -->
    <path d="M 1795 228 C 1900 236, 2040 220, 2215 232 C 2345 241, 2432 236, 2490 248"
          stroke="#A25D27" stroke-width="2.6" opacity="0.28"/>
    <path d="M 1815 255 C 1945 270, 2080 256, 2225 272 C 2360 287, 2455 278, 2490 290"
          stroke="#EFD7A1" stroke-width="2.8" opacity="0.26"/>
    <path d="M 1770 285 C 1880 300, 2010 292, 2180 307 C 2325 320, 2425 316, 2488 332"
          stroke="#B16A2F" stroke-width="2.4" opacity="0.22"/>
    <path d="M 1765 320 C 1910 332, 2060 326, 2230 341 C 2375 353, 2455 350, 2490 362"
          stroke="#F7E6B7" stroke-width="2.6" opacity="0.22"/>
    <path d="M 1820 352 C 1935 365, 2088 360, 2250 372 C 2366 381, 2448 378, 2488 388"
          stroke="#A15D28" stroke-width="2.4" opacity="0.20"/>

    <!-- tiny knot-like details -->
    <path d="M 2285 300 C 2291 292, 2303 293, 2307 301 C 2312 309, 2304 317, 2293 316 C 2285 314, 2281 307, 2285 300 Z"
          fill="#B97132" opacity="0.28" stroke="none"/>
    <path d="M 2380 348 C 2385 342, 2396 343, 2400 350 C 2404 357, 2398 364, 2389 364 C 2382 362, 2378 355, 2380 348 Z"
          fill="#A15C28" opacity="0.24" stroke="none"/>

    <!-- top/bottom rim highlight -->
    <path d="M 66 257 C 160 252, 660 255, 1630 257 C 1730 257, 1775 247, 1830 227 C 1890 206, 1962 192, 2068 191 L 2410 191"
          stroke="#FFF2CA" stroke-width="4" opacity="0.26"/>
    <path d="M 70 394 C 130 387, 680 391, 1640 390 C 1710 390, 1768 380, 1828 401 C 1888 422, 1961 435, 2065 436 L 2410 436"
          stroke="#8A4B1E" stroke-width="4" opacity="0.18"/>
  </g>
</svg>