<svg width="350" height="49" viewBox="0 0 350 49" fill="none" xmlns="http://www.w3.org/2000/svg">
<g clip-path="url(#clip0_218_1505)">
<path d="M332.329 3.09863H317.354C310.165 3.09863 304.375 8.89863 304.375 16.0986V31.0986C304.375 38.2986 310.165 44.0986 317.354 44.0986H332.329C339.517 44.0986 345.308 38.2986 345.308 31.0986V16.0986C345.308 8.89863 339.517 3.09863 332.329 3.09863ZM317.354 6.09863H332.329C337.82 6.09863 342.312 10.5986 342.312 16.0986V18.5986L329.833 30.9986L325.64 26.7986L339.617 12.7986L337.52 10.6986L323.543 24.6986L318.651 19.7986L316.555 21.8986L321.447 26.7986L317.254 30.9986L307.47 21.1986V16.0986C307.47 10.5986 311.962 6.09863 317.453 6.09863H317.354ZM332.329 41.0986H317.354C311.863 41.0986 307.37 36.5986 307.37 31.0986V25.5986L316.056 34.1986L317.154 35.2986L323.444 28.9986L328.735 34.2986L329.833 35.3986L342.412 22.9986V31.1986C342.412 36.6986 337.92 41.1986 332.429 41.1986L332.329 41.0986Z" fill="white"/>
<path d="M195.954 27.3988C195.654 28.5988 195.255 30.3988 195.055 31.3988C194.855 30.3988 194.456 28.5988 194.057 27.3988L189.165 9.39883H185.171L180.18 27.3988C179.88 28.5988 179.381 30.3988 179.181 31.3988C178.982 30.3988 178.582 28.6988 178.283 27.4988L173.99 9.29883H169.896L177.085 37.1988H180.878L186.269 17.5988C186.569 16.4988 186.968 14.9988 187.168 14.0988C187.368 14.9988 187.767 16.4988 187.967 17.5988L193.058 37.1988H196.652L204.44 9.29883H200.546L195.954 27.3988Z" fill="#ECE8DF"/>
<path d="M209.731 16.999H206.236V37.299H209.731V16.999Z" fill="#ECE8DF"/>
<path d="M222.709 16.499C220.114 16.499 218.117 17.399 216.52 19.299V16.999H213.025V37.299H216.52V24.899C216.52 21.799 218.716 19.599 221.811 19.599C224.906 19.599 226.104 20.999 226.104 23.399V37.299H229.598V23.099C229.598 18.999 227.002 16.499 222.709 16.499Z" fill="#ECE8DF"/>
<path d="M241.18 25.0986C237.686 24.3986 235.988 23.9986 235.988 21.9986C235.988 19.9986 237.386 19.3986 239.782 19.3986C242.178 19.3986 243.975 20.4986 244.275 22.9986V23.1986H247.869V22.9986C247.37 18.7986 244.574 16.5986 239.882 16.5986C235.19 16.5986 232.494 18.6986 232.494 22.2986C232.494 25.8986 236.388 27.6986 240.082 28.4986C243.875 29.2986 245.073 29.8986 245.073 31.8986C245.073 33.8986 243.476 34.9986 240.681 34.9986C237.885 34.9986 235.589 33.5986 235.19 30.6986V30.4986H231.596V30.6986C231.895 35.3986 235.09 37.8986 240.581 37.8986C246.072 37.8986 248.668 35.5986 248.668 31.6986C248.668 27.7986 244.674 25.8986 241.18 25.1986V25.0986Z" fill="#ECE8DF"/>
<path d="M259.649 16.499C254.058 16.499 250.064 20.999 250.064 27.199C250.064 33.399 254.058 37.899 259.848 37.899C265.639 37.899 267.635 35.399 268.534 30.999V30.799H265.14V30.999C264.441 33.599 262.644 34.899 259.748 34.899C256.853 34.899 253.858 32.299 253.559 28.199H268.933V27.999C268.933 20.999 265.339 16.599 259.549 16.599L259.649 16.499ZM259.649 19.299C262.943 19.299 265.04 21.499 265.239 25.299H253.758C254.357 21.499 256.454 19.299 259.649 19.299Z" fill="#ECE8DF"/>
<path d="M280.815 16.499C278.219 16.499 276.222 17.399 274.625 19.299V16.999H271.131V37.299H274.625V24.899C274.625 21.799 276.821 19.599 279.916 19.599C283.011 19.599 284.209 20.999 284.209 23.399V37.299H287.704V23.099C287.704 18.999 285.108 16.499 280.815 16.499Z" fill="#ECE8DF"/>
<path d="M207.935 10.7988C206.637 10.7988 205.639 11.7988 205.639 13.0988C205.639 14.3988 206.637 15.3988 207.935 15.3988C209.233 15.3988 210.231 14.3988 210.231 13.0988C210.231 11.7988 209.233 10.7988 207.935 10.7988Z" fill="#ECE8DF"/>
</g>
<path d="M0.677332 36L9.31332 11.616H11.7348L20.3708 36H18.3049L10.0076 12.632H10.9897L2.7432 36H0.677332ZM4.25026 29.8701V28.0244H16.7809V29.8701H4.25026ZM37.2969 44.636C36.3938 44.636 35.4907 44.5005 34.5876 44.2296C33.6958 43.9699 32.8604 43.541 32.0815 42.9427C31.3025 42.3556 30.6421 41.5711 30.1003 40.5889L31.8613 39.5391C32.4145 40.6679 33.1991 41.4751 34.2151 41.9605C35.2311 42.4459 36.264 42.6887 37.3139 42.6887C38.7927 42.6887 39.9611 42.4121 40.8191 41.8589C41.6883 41.3171 42.3092 40.4986 42.6817 39.4036C43.0542 38.3199 43.2405 36.9708 43.2405 35.3565V30.5644H43.4437V17.712H45.2217V35.3565C45.2217 35.8984 45.2104 36.4177 45.1878 36.9144C45.1653 37.4111 45.1145 37.9078 45.0354 38.4045C44.8322 39.8156 44.4146 40.9784 43.7824 41.8928C43.1502 42.8185 42.2922 43.5071 41.2085 43.9587C40.1361 44.4102 38.8322 44.636 37.2969 44.636ZM37.2123 36.508C35.4851 36.508 34.0232 36.0847 32.8265 35.238C31.6412 34.38 30.7324 33.2229 30.1003 31.7667C29.4794 30.2991 29.1689 28.6509 29.1689 26.8221C29.1689 25.0159 29.4794 23.3847 30.1003 21.9284C30.7212 20.4722 31.613 19.3207 32.7757 18.474C33.9498 17.6274 35.3665 17.204 37.026 17.204C38.7306 17.204 40.1699 17.6217 41.344 18.4571C42.518 19.2925 43.4042 20.4383 44.0025 21.8946C44.6008 23.3395 44.9 24.9821 44.9 26.8221C44.9 28.6509 44.6008 30.2935 44.0025 31.7497C43.4042 33.206 42.535 34.3631 41.3948 35.2211C40.2546 36.079 38.8604 36.508 37.2123 36.508ZM37.3308 34.6453C38.6967 34.6453 39.8313 34.3067 40.7344 33.6293C41.6488 32.9407 42.3261 32.0094 42.7664 30.8353C43.2179 29.65 43.4437 28.3123 43.4437 26.8221C43.4437 25.3207 43.2179 23.983 42.7664 22.809C42.3148 21.6349 41.6375 20.7205 40.7344 20.0658C39.8313 19.3997 38.708 19.0667 37.3647 19.0667C35.9761 19.0667 34.8303 19.411 33.9272 20.0996C33.0241 20.777 32.3524 21.7026 31.9121 22.8767C31.4719 24.0394 31.2517 25.3546 31.2517 26.8221C31.2517 28.301 31.4775 29.6331 31.9291 30.8184C32.3919 31.9925 33.0692 32.9238 33.9611 33.6124C34.8642 34.301 35.9874 34.6453 37.3308 34.6453ZM55.2457 36.508C53.8346 36.508 52.6605 36.2596 51.7236 35.7629C50.7979 35.2662 50.1036 34.6115 49.6408 33.7987C49.1779 32.9746 48.9465 32.0828 48.9465 31.1232C48.9465 30.0846 49.161 29.2154 49.59 28.5155C50.0302 27.8156 50.6116 27.2511 51.3341 26.8221C52.0679 26.3932 52.875 26.0714 53.7556 25.857C54.7603 25.6312 55.844 25.4393 57.0068 25.2812C58.1695 25.1119 59.2758 24.9651 60.3257 24.841C61.3868 24.7168 62.2504 24.6095 62.9165 24.5192L62.2053 24.9426C62.2504 22.967 61.8779 21.4994 61.0877 20.5399C60.3088 19.569 58.9315 19.0836 56.956 19.0836C55.5674 19.0836 54.4216 19.3997 53.5185 20.0319C52.6267 20.6528 52.0001 21.618 51.6389 22.9275L49.6408 22.3687C50.0585 20.7092 50.8995 19.4336 52.1638 18.5418C53.4282 17.6499 55.0481 17.204 57.0237 17.204C58.7057 17.204 60.1168 17.5314 61.257 18.1862C62.4085 18.8409 63.21 19.761 63.6615 20.9463C63.8535 21.4317 63.9833 22.0018 64.051 22.6566C64.1187 23.3 64.1526 23.9491 64.1526 24.6039V36H62.3746V31.1909L63.035 31.3603C62.4819 33.0084 61.5167 34.2784 60.1394 35.1703C58.7622 36.0621 57.1309 36.508 55.2457 36.508ZM55.3473 34.7131C56.5891 34.7131 57.6784 34.4929 58.6154 34.0527C59.5524 33.6011 60.3088 32.9746 60.8845 32.1731C61.4715 31.3603 61.844 30.4064 62.0021 29.3113C62.115 28.7017 62.1771 28.0413 62.1884 27.3301C62.1996 26.6189 62.2053 26.094 62.2053 25.7554L63.0519 26.2972C62.3182 26.3875 61.4376 26.4835 60.4104 26.5851C59.3944 26.6867 58.3558 26.8109 57.2946 26.9576C56.2335 27.1044 55.2739 27.2906 54.416 27.5164C53.8854 27.6632 53.3492 27.8777 52.8073 28.1599C52.2767 28.4308 51.8308 28.809 51.4696 29.2944C51.1196 29.7798 50.9446 30.3951 50.9446 31.1401C50.9446 31.6933 51.0801 32.2465 51.351 32.7996C51.6333 33.3528 52.0961 33.81 52.7396 34.1712C53.383 34.5324 54.2523 34.7131 55.3473 34.7131ZM90.3087 36L90.3426 23.7064C90.3426 22.2276 89.9193 21.0705 89.0726 20.2351C88.2372 19.3884 87.193 18.9651 85.94 18.9651C85.2288 18.9651 84.5232 19.1288 83.8233 19.4562C83.1347 19.7835 82.5589 20.3141 82.0961 21.0479C81.6333 21.7817 81.4018 22.7751 81.4018 24.0282L80.0302 23.808C79.9851 22.4759 80.2278 21.3188 80.7584 20.3367C81.3002 19.3433 82.0453 18.5756 82.9936 18.0338C83.9531 17.4919 85.0425 17.221 86.2617 17.221C88.0566 17.221 89.5072 17.7741 90.6135 18.8804C91.7311 19.9867 92.2899 21.4994 92.2899 23.4186L92.2561 36H90.3087ZM68.5494 36V17.712H70.3274V21.8268H70.4968V36H68.5494ZM79.4376 36L79.4714 23.8927C79.4714 22.38 79.0594 21.1834 78.2353 20.3028C77.4112 19.411 76.3388 18.9651 75.018 18.9651C73.6746 18.9651 72.5852 19.4279 71.7498 20.3536C70.9145 21.268 70.4968 22.4929 70.4968 24.0282L69.1421 23.3508C69.1421 22.1655 69.413 21.1156 69.9549 20.2012C70.4968 19.2755 71.2362 18.5474 72.1732 18.0168C73.1214 17.4863 74.2052 17.221 75.4244 17.221C76.5194 17.221 77.5185 17.4524 78.4216 17.9152C79.3247 18.3781 80.0472 19.078 80.589 20.015C81.1309 20.9406 81.4018 22.1034 81.4018 23.5032L81.368 36H79.4376ZM104.164 36.508C102.414 36.508 100.901 36.1185 99.6255 35.3396C98.3499 34.5494 97.3621 33.4374 96.6622 32.0037C95.9623 30.5588 95.6123 28.8541 95.6123 26.8899C95.6123 24.8918 95.9566 23.1702 96.6452 21.7252C97.3452 20.269 98.3273 19.1514 99.5916 18.3724C100.867 17.5935 102.38 17.204 104.13 17.204C105.902 17.204 107.415 17.6104 108.668 18.4232C109.932 19.2247 110.892 20.3875 111.547 21.9115C112.213 23.4355 112.529 25.2699 112.495 27.4148H110.463V26.7375C110.406 24.2314 109.842 22.3235 108.769 21.014C107.697 19.7045 106.162 19.0498 104.164 19.0498C102.098 19.0498 100.5 19.7327 99.3715 21.0987C98.2539 22.4534 97.6951 24.3725 97.6951 26.856C97.6951 29.317 98.2539 31.2248 99.3715 32.5795C100.5 33.9341 102.086 34.6115 104.13 34.6115C105.541 34.6115 106.771 34.2841 107.821 33.6293C108.882 32.9633 109.723 32.015 110.344 30.7845L112.105 31.5635C111.372 33.1439 110.31 34.3631 108.922 35.2211C107.533 36.079 105.947 36.508 104.164 36.508ZM96.95 27.4148V25.6538H111.394V27.4148H96.95ZM131.03 36.508C129.382 36.508 127.988 36.079 126.847 35.2211C125.707 34.3631 124.838 33.206 124.24 31.7497C123.641 30.2935 123.342 28.6509 123.342 26.8221C123.342 24.9821 123.641 23.3395 124.24 21.8946C124.838 20.4383 125.724 19.2925 126.898 18.4571C128.072 17.6217 129.512 17.204 131.216 17.204C132.876 17.204 134.292 17.6274 135.466 18.474C136.64 19.3207 137.532 20.4722 138.142 21.9284C138.763 23.3847 139.073 25.0159 139.073 26.8221C139.073 28.6509 138.757 30.2991 138.125 31.7667C137.504 33.2229 136.595 34.38 135.399 35.238C134.213 36.0847 132.757 36.508 131.03 36.508ZM123.02 36V11.616H124.968V21.9115H124.798V36H123.02ZM130.911 34.6453C132.255 34.6453 133.372 34.301 134.264 33.6124C135.167 32.9238 135.845 31.9925 136.296 30.8184C136.759 29.6331 136.99 28.301 136.99 26.8221C136.99 25.3546 136.765 24.0394 136.313 22.8767C135.873 21.7026 135.201 20.777 134.298 20.0996C133.406 19.411 132.266 19.0667 130.878 19.0667C129.534 19.0667 128.411 19.3997 127.508 20.0658C126.605 20.7205 125.927 21.6349 125.476 22.809C125.024 23.983 124.798 25.3207 124.798 26.8221C124.798 28.3123 125.019 29.65 125.459 30.8353C125.91 32.0094 126.588 32.9407 127.491 33.6293C128.405 34.3067 129.545 34.6453 130.911 34.6453ZM144.713 44.128L148.269 34.5607L148.303 37.4055L140.293 17.712H142.376L149.251 34.8147H148.167L154.416 17.712H156.465L146.745 44.128H144.713Z" fill="#ECE8DF"/>
<defs>
<clipPath id="clip0_218_1505">
<rect width="182" height="42" fill="white" transform="translate(168 3.09863)"/>
</clipPath>
</defs>
</svg>
